<ttFont>
          <CharString index="0">
            -102 callgsubr
            108 -113 128 hvcurveto
            9 -3 callsubr
            -385 158 rmoveto
            113 95 95 111 51 50 -22 -32 37 -23 callsubr
            -289 rlineto
            -31 35 -22 52 48 vvcurveto
            return
          </CharString>
          <CharString index="1">
            rmoveto
            -48 -45 43 48 -3 hvcurveto
            -28 hlineto
            -63 3 52 -53 65 hhcurveto
            8 hlineto
            64 54 53 63 3 hvcurveto
            -29 hlineto
            -47 -5 -43 -44 -48 hhcurveto
            return
          </CharString>
          <CharString index="2">
            rmoveto
            -33 -21 -19 -16 -18 -56 -33 53 -59 hhcurveto
            -9 hlineto
            -36 -34 -29 -51 -25 hvcurveto
            31 hlineto
            20 33 22 20 23 1 rrcurveto
            54 44 -55 57 hhcurveto
            29 30 26 51 31 hvcurveto
            endchar
          </CharString>
          <CharString index="3">
            -14 rmoveto
            120 98 95 132 hvcurveto
            537 6 callgsubr
            vlineto
            -116 -84 -81 -106 -107 -84 82 115 vhcurveto
            538 -33 -539 vlineto
            -132 99 -93 120 vhcurveto
            return
          </CharString>
          <CharString index="4">
            427 rmoveto
            21 -19 -30 14 -33 hhcurveto
            -51 -46 -34 -54 hvcurveto
            -117 217 -10 -120 vvcurveto
            -61 -54 -49 -69 -45 -48 20 64 -29 vhcurveto
            -48 vlineto
            -39 21 51 -25 53 hhcurveto
            84 68 63 79 hvcurveto
            143 -217 10 91 vvcurveto
            35 33 24 33 27 33 -16 -32 21 vhcurveto
            return
          </CharString>
          <CharString index="5">
            695 rmoveto
            45 -36 -53 23 -57 hhcurveto
            -81 -75 -45 -99 hvcurveto
            -7 vlineto
            -193 352 -8 -214 vvcurveto
            -6 vlineto
            -109 -86 -67 -105 -97 -67 57 71 -32 vhcurveto
            -54 vlineto
            -60 40 62 -43 92 hhcurveto
            121 103 76 131 hvcurveto
            10 vlineto
            235 -350 9 168 vvcurveto
            5 vlineto
            72 54 42 68 60 56 -34 -56 31 vhcurveto
            return
          </CharString>
          <CharString index="6">
            -78 callsubr
            -262 vlineto
            -92 -78 -79 -93 -91 -78 79 92 vhcurveto
            262 -32 -262 vlineto
            -110 90 -89 111 80 59 34 64 32 vhcurveto
            -76 vlineto
            -100 -83 -82 -99 -68 -64 42 63 -37 vhcurveto
            -2 -50 rlineto
            -51 39 60 -32 72 hhcurveto
            120 94 95 118 hvcurveto
            436 vlineto
            return
          </CharString>
          <CharString index="7">
            349 -13 rmoveto
            159 366 159 -366 333 763 rlineto
            -27 hlineto
            -303 -690 -142 329 156 361 rlineto
            -28 hlineto
            -143 -329 -139 329 1 callsubr
            155 -362 -139 -325 -297 687 rlineto
            -37 hlineto
            return
          </CharString>
          <CharString index="8">
            -5 callgsubr
            223 32 -55 callgsubr
            238 vlineto
            227 -238 rlineto
            43 hlineto
            -258 272 rlineto
            7 hlineto
            109 127 105 134 129 -115 110 -129 hvcurveto
            -11 -449 rmoveto
            420 13 vlineto
            109 101 -97 -113 -116 -98 -94 -107 hvcurveto
            return
          </CharString>
          <CharString index="9">
            -111 -95 95 113 return
          </CharString>
          <CharString index="10">
            25 -78 callsubr
            216 -461 103 219 102 -219 213 460 rlineto
            -29 hlineto
            -183 -394 -86 185 98 210 rlineto
            -30 hlineto
            -83 -179 -81 177 rlineto
            -32 hlineto
            97 -208 -87 -183 -185 393 rlineto
            return
          </CharString>
          <CharString index="11">
            hmoveto
            -29 callsubr
            92 83 79 91 92 74 -79 -92 vhcurveto
            -262 32 -29 callsubr
            110 -85 89 -113 -72 -66 -30 -72 -36 vhcurveto
            return
          </CharString>
          <CharString index="12">
            32 vlineto
            235 139 179 195 199 -142 177 -232 hvcurveto
            8 -30 rmoveto
            199 134 -162 -184 -183 -133 -160 -200 hvcurveto
            -8 return
          </CharString>
          <CharString index="13">
            29 -236 255 197 29 -197 408 return
          </CharString>
          <CharString index="14">
            rlineto
            -7 vlineto
            -40 31 -30 44 vhcurveto
            40 25 -38 hlineto
            -31 -19 23 27 hvcurveto
            return
          </CharString>
          <CharString index="15">
            -18 10 -9 19 return
          </CharString>
          <CharString index="16">
            255 197 29 -197 408 236 29 vlineto
            return
          </CharString>
          <CharString index="17">
            -84 callgsubr
            -750 return
          </CharString>
          <CharString index="18">
            750 rmoveto
            -17 callgsubr
            236 29 vlineto
            return
          </CharString>
          <CharString index="19">
            32 237 vlineto
            228 -237 rlineto
            43 hlineto
            -258 270 206 180 rlineto
            -41 hlineto
            -178 -156 rlineto
            return
          </CharString>
          <CharString index="20">
            231 19 -71 callsubr
            590 -32 -590 vlineto
            -101 79 -68 92 vhcurveto
            return
          </CharString>
          <CharString index="21">
            vstem
            75 -89 callsubr
            return
          </CharString>
          <CharString index="22">
            113 95 95 111 115 91 -95 -113 -113 -91 -95 -115 vhcurveto
            return
          </CharString>
          <CharString index="23">
            21 -74 callsubr
            return
          </CharString>
          <CharString index="24">
            -74 callgsubr
            514 33 vstem
            622 -84 callgsubr
            -435 -514 435 20 callgsubr
            33 286 514 -286 0 callsubr
            return
          </CharString>
          <CharString index="25">
            -35 -25 35 hlineto
            44 33 33 40 hvcurveto
            4 vlineto
            40 -34 34 -43 vhcurveto
            -10 return
          </CharString>
          <CharString index="26">
            30 -72 hhcurveto
            -97 callgsubr
            return
          </CharString>
          <CharString index="27">
            vstem
            75 -90 callsubr
            return
          </CharString>
          <CharString index="28">
            -78 callsubr
            -286 -28 229 hlineto
            -256 -422 rlineto
            310 28 -254 hlineto
            return
          </CharString>
          <CharString index="29">
            450 rmoveto
            return
          </CharString>
          <CharString index="30">
            -21 433 28 return
          </CharString>
          <CharString index="31">
            -21 10 -10 21 return
          </CharString>
          <CharString index="32">
            hlineto
            75 -37 -87 46 -80 hhcurveto
            -133 -105 -107 -129 -129 105 -107 133 78 85 44 76 41 hvcurveto
            return
          </CharString>
          <CharString index="33">
            -21 750 -20 return
          </CharString>
          <CharString index="34">
            29 255 29 408 29 return
          </CharString>
          <CharString index="35">
            72 -43 -78 44 -83 hhcurveto
            -131 -107 -107 -129 -129 107 -107 131 83 78 44 72 43 hvcurveto
            return
          </CharString>
          <CharString index="36">
            rmoveto
            -76 -63 58 83 hvcurveto
            return
          </CharString>
          <CharString index="37">
            -84 callgsubr
            -32 hlineto
            -145 -297 -146 297 rlineto
            -38 hlineto
            165 -331 -203 -419 rlineto
            31 hlineto
            188 385 187 -385 -15 callsubr
            -205 420 rlineto
            endchar
          </CharString>
          <CharString index="38">
            -97 callgsubr
            -123 return
          </CharString>
          <CharString index="39">
            -750 33 vlineto
            125 110 106 123 127 -121 101 -105 hvcurveto
            -9 293 hlineto
            8 -322 rmoveto
            101 93 -91 -108 -108 -95 -92 -99 hvcurveto
            -8 399 hlineto
            endchar
          </CharString>
          <CharString index="40">
            rmoveto
            28 -197 -28 vlineto
            endchar
          </CharString>
          <CharString index="41">
            -267 21 -21 644 -20 hstem
            83 32 vstem
            115 -78 callgsubr
            return
          </CharString>
          <CharString index="42">
            rmoveto
            -43 vlineto
            184 -163 -184 -164 rlineto
            -45 vlineto
            218 196 rlineto
            26 vlineto
            return
          </CharString>
          <CharString index="43">
            108 -84 callgsubr
            20 callgsubr
            265 29 -232 hlineto
            return
          </CharString>
          <CharString index="44">
            552 -679 rlineto
            761 -29 -667 vlineto
            return
          </CharString>
          <CharString index="45">
            21 -57 callsubr
            return
          </CharString>
          <CharString index="46">
            rmoveto
            -56 -17 -39 -46 -64 vvcurveto
            -118 36 118 vlineto
            43 24 33 35 16 vhcurveto
            return
          </CharString>
          <CharString index="47">
            236 vlineto
            104 54 81 99 48 50 -24 -36 32 vhcurveto
            35 vlineto
            29 -33 -45 21 -47 hhcurveto
            -9 hlineto
            -109 -72 -90 -120 hvcurveto
            -236 -92 -28 92 return
          </CharString>
          <CharString index="48">
            31 47 43 hvcurveto
            -385 158 rmoveto
            113 95 95 111 51 50 -22 -32 37 -23 callsubr
            -289 rlineto
            -31 35 -22 52 48 vvcurveto
            endchar
          </CharString>
          <CharString index="49">
            -44 -28 -28 -21 -24 -77 -47 72 -91 hhcurveto
            return
          </CharString>
          <CharString index="50">
            -21 286 29 return
          </CharString>
          <CharString index="51">
            39 -48 callsubr
            return
          </CharString>
          <CharString index="52">
            269 29 -236 return
          </CharString>
          <CharString index="53">
            115 rlineto
            endchar
          </CharString>
          <CharString index="54">
            761 rmoveto
            -761 29 668 vlineto
            return
          </CharString>
          <CharString index="55">
            32 vstem
            -40 callgsubr
            return
          </CharString>
          <CharString index="56">
            113 123 return
          </CharString>
          <CharString index="57">
            -21 450 -20 return
          </CharString>
          <CharString index="58">
            vlineto
            -43 -24 -33 -35 -16 vhcurveto
            return
          </CharString>
          <CharString index="59">
            -11 -45 callsubr
            return
          </CharString>
          <CharString index="60">
            132 -18 callsubr
            return
          </CharString>
          <CharString index="61">
            71 63 62 71 36 34 -17 -27 27 vhcurveto
            return
          </CharString>
          <CharString index="62">
            28 4 -50 callsubr
            return
          </CharString>
          <CharString index="63">
            -12 -87 callgsubr
            return
          </CharString>
          <CharString index="64">
            -20 -5 callgsubr
            return
          </CharString>
          <CharString index="65">
            -20 -33 callgsubr
            return
          </CharString>
          <CharString index="66">
            vvcurveto
            197 161 162 196 vhcurveto
            357 -359 rmoveto
            -50 callgsubr
            -163 -197 return
          </CharString>
          <CharString index="67">
            -96 -62 callgsubr
            return
          </CharString>
          <CharString index="68">
            -74 callgsubr
            vstem
            return
          </CharString>
          <CharString index="69">
            50 0 callgsubr
            return
          </CharString>
          <CharString index="70">
            -32 -450 32 300 vlineto
            return
          </CharString>
          <CharString index="71">
            -21 172 28 404 28 return
          </CharString>
          <CharString index="72">
            rmoveto
            31 -311 -31 vlineto
            return
          </CharString>
          <CharString index="73">
            rmoveto
            -30 vlineto
            313 -185 rlineto
            40 vlineto
            -271 160 271 159 rlineto
            38 vlineto
            return
          </CharString>
          <CharString index="74">
            -9 9 -17 return
          </CharString>
          <CharString index="75">
            rmoveto
            4 callsubr
            13 11 20 20 -13 19 callgsubr
          </CharString>
          <CharString index="76">
            66 21 35 57 hvcurveto
            return
          </CharString>
          <CharString index="77">
            -6 callgsubr
            hstem
            return
          </CharString>
          <CharString index="78">
            262 vlineto
            return
          </CharString>
          <CharString index="79">
            rmoveto
            -38 vlineto
            271 -159 -271 -160 rlineto
            -40 vlineto
            313 185 rlineto
            return
          </CharString>
          <CharString index="80">
            -92 callgsubr
            endchar
          </CharString>
          <CharString index="81">
            9 18 18 return
          </CharString>
          <CharString index="82">
            -76 -21 97 28 422 -43 callsubr
            return
          </CharString>
          <CharString index="83">
            721 20 callgsubr
            vlineto
            endchar
          </CharString>
          <CharString index="84">
            vhcurveto
            -291 return
          </CharString>
          <CharString index="85">
            36 hlineto
            123 108 106 123 127 -121 102 -105 hvcurveto
            -9 return
          </CharString>
          <CharString index="86">
            -214 -174 -176 -212 -204 171 -182 209 hvcurveto
            return
          </CharString>
          <CharString index="87">
            -8 callgsubr
            410 32 return
          </CharString>
          <CharString index="88">
            91 -32 -450 vlineto
            return
          </CharString>
          <CharString index="89">
            -14 13 callsubr
            return
          </CharString>
          <CharString index="90">
            519 -78 callsubr
            -32 -113 hlineto
            return
          </CharString>
          <CharString index="91">
            79 hhcurveto
            8 callgsubr
            121 -57 return
          </CharString>
          <CharString index="92">
            rlineto
            37 hlineto
            return
          </CharString>
          <CharString index="93">
            0 29 399 29 293 -74 callgsubr
            202 33 return
          </CharString>
          <CharString index="94">
            -174 -21 216 -77 callsubr
            -11 -42 callsubr
            return
          </CharString>
          <CharString index="95">
            21 -35 callgsubr
            return
          </CharString>
          <CharString index="96">
            219 10 -21 461 return
          </CharString>
          <CharString index="97">
            -97 -111 -113 return
          </CharString>
          <CharString index="98">
            28 417 28 return
          </CharString>
          <CharString index="99">
            115 -20 return
          </CharString>
          <CharString index="100">
            hlineto
            111 252 rlineto
            -33 hlineto
            -111 -252 rlineto
            return
          </CharString>
          <CharString index="101">
            -20 hstemhm
            75 return
          </CharString>
          <CharString index="102">
            15 callgsubr
            189 -87 callgsubr
            -11 -20 hstemhm
            return
          </CharString>
          <CharString index="103">
            29 721 -74 callgsubr
            return
          </CharString>
          <CharString index="104">
            hlineto
            71 58 31 47 43 hvcurveto
            return
          </CharString>
          <CharString index="105">
            29 719 29 return
          </CharString>
          <CharString index="106">
            194 -20 hstem
            return
          </CharString>
          <CharString index="107">
            6 callsubr
            vlineto
            return
          </CharString>
          <CharString index="108">
            rlineto
            -36 hlineto
            return
          </CharString>
          <CharString index="109">
            -20 hstem
            214 33 vstem
            386 284 rmoveto
            return
          </CharString>
          <CharString index="110">
            0 29 692 29 return
          </CharString>
          <CharString index="111">
            -20 13 -11 20 20 return
          </CharString>
          <CharString index="112">
            0 28 394 28 return
          </CharString>
          <CharString index="113">
            33 750 return
          </CharString>
          <CharString index="114">
            28 27 26 return
          </CharString>
          <CharString index="115">
            195 29 -195 406 234 29 return
          </CharString>
          <CharString index="116">
            -198 28 620 -20 129 54 hstemhm
            return
          </CharString>
          <CharString index="117">
            39 -21 415 -20 hstem
            return
          </CharString>
          <CharString index="118">
            81 -43 callgsubr
            return
          </CharString>
          <CharString index="119">
            -26 callgsubr
            32 return
          </CharString>
          <CharString index="120">
            29 735 -20 return
          </CharString>
          <CharString index="121">
            hvcurveto
            51 vlineto
            return
          </CharString>
          <CharString index="122">
            509 -78 callsubr
            -32 -113 hlineto
            return
          </CharString>
          <CharString index="123">
            30 265 32 -4 32 265 32 return
          </CharString>
          <CharString index="124">
            -55 callgsubr
            vlineto
            return
          </CharString>
          <CharString index="125">
            -58 -12 callsubr
            return
          </CharString>
          <CharString index="126">
            0 callsubr
            endchar
          </CharString>
          <CharString index="127">
            -20 hstemhm
            35 return
          </CharString>
          <CharString index="128">
            -208 -54 -21 892 -20 hstem
            return
          </CharString>
          <CharString index="129">
            hmoveto
            -97 29 126 -77 721 return
          </CharString>
          <CharString index="130">
            33 -80 callsubr
            return
          </CharString>
        <CharString name=".notdef">
          5 endchar
        </CharString>
        <CharString name="A">
          344 -62 callsubr
          453 -20 hstem
          404 -103 callgsubr
          endchar
        </CharString>
        <CharString name="AE">
          9 callgsubr
          -76 callgsubr
          endchar
        </CharString>
        <CharString name="AEacute">
          9 callgsubr
          194 -20 -76 callgsubr
          389 629 -71 callgsubr
          endchar
        </CharString>
        <CharString name="Aacute">
          344 -62 callsubr
          629 -20 hstem
          404 -103 callgsubr
          240 629 -71 callgsubr
          endchar
        </CharString>
        <CharString name="Abreve">
          324 -62 callsubr
          513 -30 callsubr
          270 28 vstem
          394 -103 callgsubr
          190 538 -106 callsubr
          endchar
        </CharString>
        <CharString name="Acircumflex">
          344 21 -21 944 -20 hstem
          404 -103 callgsubr
          207 629 rmoveto
          -30 hlineto
          -134 -115 rlineto
          42 hlineto
          106 91 107 -91 rlineto
          41 hlineto
          endchar
        </CharString>
        <CharString name="Adieresis">
          344 -62 callsubr
          543 54 hstem
          323 -14 callgsubr
          vstem
          404 -103 callgsubr
          109 570 rmoveto
          -92 callsubr
          19 10 -26 callsubr
          -10 9 -19 -19 -10 -9 -18 vhcurveto
          107 hmoveto
          -92 callsubr
          17 9 -26 callsubr
          -33 callsubr
          -19 -10 -9 -18 vhcurveto
          endchar
        </CharString>
        <CharString name="Agrave">
          344 -62 callsubr
          629 -20 hstem
          404 -103 callgsubr
          100 629 rmoveto
          139 -115 rlineto
          42 hlineto
          -140 -54 callsubr
        </CharString>
        <CharString name="Amacron">
          324 -62 callsubr
          453 -20 hstem
          394 -103 callgsubr
          endchar
        </CharString>
        <CharString name="Aogonek">
          324 -15 callgsubr
          196 -57 callsubr
          453 -20 hstem
          394 768 rmoveto
          -374 -768 rlineto
          31 hlineto
          140 286 rlineto
          401 hlineto
          142 -286 -80 -123 rlineto
          -7 vlineto
          -40 31 -30 44 vhcurveto
          40 25 -35 hlineto
          -31 -14 23 27 hvcurveto
          80 125 rlineto
          -378 699 rmoveto
          189 -384 rlineto
          -376 hlineto
          endchar
        </CharString>
        <CharString name="Aring">
          344 -62 callsubr
          497 24 102 24 hstem
          329 25 100 26 vstem
          404 -103 callgsubr
          192 497 -98 callgsubr
        </CharString>
        <CharString name="Atilde">
          344 -62 callsubr
          532 7 callsubr
          hstem
          404 -103 callgsubr
          330 609 -105 callsubr
        </CharString>
        <CharString name="B">
          -78 -89 callgsubr
        </CharString>
        <CharString name="C">
          233 -11 -60 callgsubr
          hstem
          45 33 vstem
          638 82 rmoveto
          -41 -60 -70 -23 -73 -106 callgsubr
          75 -31 callsubr
          endchar
        </CharString>
        <CharString name="CR">
          5 endchar
        </CharString>
        <CharString name="Cacute">
          233 -11 -60 callgsubr
          179 -20 hstem
          45 33 vstem
          638 82 rmoveto
          -41 -60 -70 -23 -73 -106 callgsubr
          75 -31 callsubr
          -155 899 -71 callgsubr
          endchar
        </CharString>
        <CharString name="Ccaron">
          233 -11 -60 callgsubr
          -29 208 hstemhm
          45 33 hintmask 11010000
          638 82 rmoveto
          -41 -60 -70 -23 -73 -106 callgsubr
          75 -31 callsubr
          hintmask 10110000
          -57 899 rmoveto
          -41 hlineto
          -107 -91 -106 91 rlineto
          -42 hlineto
          134 -115 rlineto
          30 hlineto
          endchar
        </CharString>
        <CharString name="Ccedilla">
          253 -15 callgsubr
          100 26 39 28 -8 -21 747 29 hstemhm
          55 33 417 24 hintmask 11011110
          417 12 callgsubr
          -52 callgsubr
          -82 callsubr
          38 8 hlineto
          75 -31 callsubr
          37 vlineto
          hintmask 11101110
          -41 -60 -70 -23 -73 hhcurveto
          -196 -161 163 196 197 161 162 196 73 70 -23 -41 60 1 callgsubr
          35 -60 -67 21 -76 hhcurveto
          -213 -177 -176 -212 -196 162 -180 200 -11 hvcurveto
          endchar
        </CharString>
        <CharString name="Ccircumflex">
          233 -11 -60 callgsubr
          0 64 -16 callgsubr
          45 33 hintmask 11011000
          638 82 rmoveto
          -41 -60 -70 -23 -73 -106 callgsubr
          75 -31 callsubr
          -186 899 rmoveto
          -30 hlineto
          hintmask 10111000
          -134 -115 rlineto
          42 hlineto
          106 91 107 -91 rlineto
          41 hlineto
          endchar
        </CharString>
        <CharString name="Cdotaccent">
          233 -11 -60 callgsubr
          94 54 hstem
          45 33 332 58 vstem
          638 82 rmoveto
          -41 -60 -70 -23 -73 -106 callgsubr
          75 -31 callsubr
          -228 841 rmoveto
          -92 callsubr
          19 10 -26 callsubr
          -10 9 -19 -19 -10 -9 -18 vhcurveto
          endchar
        </CharString>
        <CharString name="D">
          61 0 31 689 -4 callgsubr
          -750 -95 callsubr
          689 hlineto
          endchar
        </CharString>
        <CharString name="Dcaron">
          61 0 31 689 30 -30 224 hstemhm
          75 32 341 33 hintmask 11011000
          75 -90 callsubr
          -95 callsubr
          689 hlineto
          hintmask 10111000
          246 224 rmoveto
          -41 hlineto
          -107 -91 -106 91 rlineto
          -42 hlineto
          134 -115 rlineto
          30 hlineto
          endchar
        </CharString>
        <CharString name="Dcroat">
          61 0 31 330 29 330 -4 callgsubr
          -360 -60 -29 60 -361 -95 callsubr
          330 124 29 -124 330 hlineto
          endchar
        </CharString>
        <CharString name="E">
          -96 0 29 255 29 408 29 hstem
          75 33 -86 callsubr
          endchar
        </CharString>
        <CharString name="Eacute">
          -76 -62 callgsubr
          -1 callsubr
          85 33 vstem
          85 -89 callsubr
          -84 194 -71 callgsubr
          endchar
        </CharString>
        <CharString name="Ebreve">
          -40 callsubr
          78 25 91 -20 hstem
          75 33 -86 callsubr
          -134 103 -106 callsubr
          endchar
        </CharString>
        <CharString name="Ecaron">
          -40 callsubr
          -29 223 hstemhm
          75 33 hintmask 11101000
          75 -89 callsubr
          hintmask 11011000
          15 194 rmoveto
          -41 hlineto
          -107 -91 -106 91 rlineto
          -42 hlineto
          134 -115 rlineto
          30 hlineto
          endchar
        </CharString>
        <CharString name="Ecircumflex">
          -76 -62 callgsubr
          0 79 -16 callgsubr
          85 33 hintmask 11101100
          85 -89 callsubr
          -116 194 rmoveto
          -30 hlineto
          hintmask 11011100
          -134 -115 rlineto
          42 hlineto
          106 91 107 -91 rlineto
          41 hlineto
          endchar
        </CharString>
        <CharString name="Edieresis">
          -76 -62 callgsubr
          108 54 hstem
          85 33 19 -14 callgsubr
          vstem
          85 -89 callsubr
          -217 135 rmoveto
          -92 callsubr
          19 10 -26 callsubr
          -10 9 -19 -19 -10 -9 -18 vhcurveto
          107 hmoveto
          -92 callsubr
          17 9 -26 callsubr
          -33 callsubr
          -19 -10 -9 -18 vhcurveto
          endchar
        </CharString>
        <CharString name="Edotaccent">
          -40 callsubr
          109 54 hstem
          75 33 76 58 -86 callsubr
          -160 136 rmoveto
          -92 callsubr
          19 10 -26 callsubr
          -10 9 -19 -19 -10 -9 -18 vhcurveto
          endchar
        </CharString>
        <CharString name="Egrave">
          -76 -62 callgsubr
          -1 callsubr
          85 33 vstem
          85 -89 callsubr
          -223 194 rmoveto
          139 -115 rlineto
          42 hlineto
          -140 -54 callsubr
        </CharString>
        <CharString name="Emacron">
          -96 0 29 255 29 408 29 hstem
          75 33 -86 callsubr
          endchar
        </CharString>
        <CharString name="Eogonek">
          -96 -15 callgsubr
          175 29 255 29 408 2 callgsubr
          240 vlineto
          -86 -123 -93 callsubr
          87 125 rlineto
          29 -235 -91 callsubr
          endchar
        </CharString>
        <CharString name="Eth">
          61 0 31 330 29 330 -4 callgsubr
          -360 -60 -29 60 -361 -95 callsubr
          330 124 29 -124 330 hlineto
          endchar
        </CharString>
        <CharString name="Euro">
          236 -13 29 270 29 106 29 282 29 hstem
          75 31 vstem
          463 761 rmoveto
          -21 callsubr
          15 hlineto
          72 65 21 35 57 1 callgsubr
          -41 -60 -68 -23 -73 hhcurveto
          -163 -140 120 150 -43 hvcurveto
          373 hlineto
          11 29 rlineto
          -390 hlineto
          -3 19 -2 20 19 vvcurveto
          17 1 16 2 15 vhcurveto
          438 hlineto
          11 29 rlineto
          -444 hlineto
          149 43 144 133 162 hhcurveto
          69 66 -20 -39 56 hvcurveto
          12 30 rlineto
          36 -60 -67 22 -76 hhcurveto
          endchar
        </CharString>
        <CharString name="F">
          -98 -62 callsubr
          406 2 callgsubr
          33 286 8 callsubr
          vlineto
          endchar
        </CharString>
        <CharString name="G">
          -45 callgsubr
          hstem
          45 33 527 33 vstem
          357 286 rmoveto
          248 -226 hlineto
          -23 -48 -66 -19 -56 -106 callgsubr
          73 69 20 35 56 hvcurveto
          271 -281 vlineto
          endchar
        </CharString>
        <CharString name="Gbreve">
          -45 callgsubr
          63 -30 callsubr
          45 33 235 28 264 33 vstem
          357 286 rmoveto
          248 -226 hlineto
          -23 -48 -66 -19 -56 -106 callgsubr
          73 69 20 35 56 hvcurveto
          271 -281 vlineto
          80 538 -106 callsubr
          endchar
        </CharString>
        <CharString name="Gcircumflex">
          -45 callgsubr
          0 64 -16 callgsubr
          45 33 527 33 hintmask 11101110
          357 286 rmoveto
          248 -226 hlineto
          -23 -48 -66 -19 -56 -106 callgsubr
          73 69 20 35 56 hvcurveto
          271 -281 vlineto
          93 629 rmoveto
          -30 hlineto
          hintmask 11011110
          -134 -115 rlineto
          42 hlineto
          106 91 107 -91 rlineto
          41 hlineto
          endchar
        </CharString>
        <CharString name="Gdotaccent">
          -45 callgsubr
          94 54 hstem
          45 33 328 58 141 33 vstem
          357 286 rmoveto
          248 -226 hlineto
          -23 -48 -66 -19 -56 -106 callgsubr
          73 69 20 35 56 hvcurveto
          271 -281 vlineto
          49 571 rmoveto
          -92 callsubr
          19 10 -26 callsubr
          -10 9 -19 -19 -10 -9 -18 vhcurveto
          endchar
        </CharString>
        <CharString name="H">
          265 -62 callsubr
          435 -83 callsubr
          endchar
        </CharString>
        <CharString name="Hbar">
          265 -62 callsubr
          214 29 192 -74 callgsubr
          514 33 vstem
          622 -84 callgsubr
          -192 -514 192 -33 -192 -55 -29 55 -529 33 286 514 -286 33 529 56 29 -56 192 vlineto
          -547 -435 rmoveto
          214 514 -214 vlineto
          endchar
        </CharString>
        <CharString name="Hcircumflex">
          265 -62 callsubr
          435 -20 214 -83 callsubr
          -274 194 rmoveto
          -30 hlineto
          -134 -115 rlineto
          42 hlineto
          106 91 107 -91 rlineto
          41 hlineto
          endchar
        </CharString>
        <CharString name="I">
          -20 callgsubr
          hstem
          80 33 vstem
          80 -80 callgsubr
          endchar
        </CharString>
        <CharString name="Iacute">
          -72 callgsubr
          33 194 -71 callgsubr
          endchar
        </CharString>
        <CharString name="Ibreve">
          -20 callgsubr
          98 -30 callsubr
          -28 28 80 33 vstem
          80 -80 callgsubr
          -17 103 -106 callsubr
          endchar
        </CharString>
        <CharString name="Icircumflex">
          -72 callgsubr
          194 vmoveto
          -30 hlineto
          -134 -115 rlineto
          42 hlineto
          106 91 107 -91 rlineto
          41 hlineto
          endchar
        </CharString>
        <CharString name="Idieresis">
          -252 -84 callsubr
          128 54 hstem
          25 58 7 33 9 55 vstem
          90 -80 callgsubr
          -98 135 rmoveto
          -92 callsubr
          19 10 -26 callsubr
          -10 9 -19 -19 -10 -9 -18 vhcurveto
          107 hmoveto
          -92 callsubr
          17 9 -26 callsubr
          -33 callsubr
          -19 -10 -9 -18 vhcurveto
          endchar
        </CharString>
        <CharString name="Idotaccent">
          -20 callgsubr
          129 54 hstemhm
          67 58 -45 33 hintmask 11101000
          80 -80 callgsubr
          hintmask 11110000
          -46 136 rmoveto
          -92 callsubr
          19 10 -26 callsubr
          -10 9 -19 -19 -10 -9 -18 vhcurveto
          endchar
        </CharString>
        <CharString name="Igrave">
          -72 callgsubr
          -107 194 rmoveto
          139 -115 rlineto
          42 hlineto
          -140 -54 callsubr
        </CharString>
        <CharString name="Imacron">
          -20 callgsubr
          136 28 hstem
          80 33 vstem
          80 -80 callgsubr
          84 116 -67 callsubr
        </CharString>
        <CharString name="Iogonek">
          -272 -15 callgsubr
          196 -74 callsubr
          hstem
          80 33 vstem
          80 -90 callsubr
          4 vlineto
          -86 -123 -93 callsubr
          87 125 rlineto
          1 750 hlineto
          endchar
        </CharString>
        <CharString name="Itilde">
          -20 callgsubr
          117 7 callsubr
          hstem
          80 33 vstem
          80 -80 callgsubr
          123 174 -105 callsubr
        </CharString>
        <CharString name="J">
          2 -15 29 707 29 hstem
          359 33 vstem
          174 -88 callgsubr
          endchar
        </CharString>
        <CharString name="Jcircumflex">
          2 -15 29 707 29 0 79 -16 callgsubr
          359 33 hintmask 11011000
          174 -88 callgsubr
          128 194 rmoveto
          -30 hlineto
          hintmask 10111000
          -134 -115 rlineto
          42 hlineto
          106 91 107 -91 rlineto
          41 hlineto
          endchar
        </CharString>
        <CharString name="K">
          107 -44 callgsubr
          75 33 vstem
          75 750 -90 callgsubr
          endchar
        </CharString>
        <CharString name="L">
          -105 0 -4 callsubr
          vstem
          -64 callsubr
          endchar
        </CharString>
        <CharString name="Lacute">
          -105 0 29 721 -20 214 -39 callsubr
          -64 callsubr
          51 915 -71 callgsubr
          endchar
        </CharString>
        <CharString name="Lcaron">
          -105 0 29 720 -20 21 -6 callsubr
          33 0 113 hintmask 10110000
          -64 callsubr
          144 602 -99 callgsubr
          hintmask 11001000
          20 -15 11 -21 -22 -11 -10 -21 -76 callsubr
          vhcurveto
          endchar
        </CharString>
        <CharString name="Ldot">
          -105 0 29 338 62 321 -74 callgsubr
          145 62 vstem
          -64 callsubr
          145 369 -61 callgsubr
        </CharString>
        <CharString name="Lslash">
          -105 0 -4 callsubr
          vstem
          108 -84 callgsubr
          -33 -462 hlineto
          -67 -67 20 -20 47 47 rlineto
          -248 265 29 -232 252 vlineto
          140 140 -20 20 -120 -120 rlineto
          endchar
        </CharString>
        <CharString name="M">
          454 7 -21 35 -74 callsubr
          hstemhm
          75 30 706 33 hintmask 01111000
          123 -84 callgsubr
          -48 -750 30 711 hlineto
          hintmask 10111000
          352 -725 354 725 rlineto
          hintmask 01111000
          -711 6 callsubr
          -46 vlineto
          -338 -692 rlineto
          endchar
        </CharString>
        <CharString name="N">
          266 10 -21 32 -74 callsubr
          31 -36 callgsubr
          hintmask 01011100
          75 -53 callsubr
          hintmask 10101100
          -63 callsubr
          endchar
        </CharString>
        <CharString name="NULL">
          -445 endchar
        </CharString>
        <CharString name="Nacute">
          -68 callgsubr
          -212 861 -71 callgsubr
          endchar
        </CharString>
        <CharString name="Ncaron">
          -68 callgsubr
          -114 861 rmoveto
          -41 hlineto
          -107 -91 -106 91 rlineto
          -42 hlineto
          134 -115 rlineto
          30 hlineto
          endchar
        </CharString>
        <CharString name="Ntilde">
          286 10 -21 32 -74 callsubr
          117 7 callsubr
          hstemhm
          85 29 523 29 hintmask 01111110
          85 -53 callsubr
          hintmask 10111110
          -63 callsubr
          -122 841 -105 callsubr
        </CharString>
        <CharString name="O">
          405 -13 -60 callgsubr
          hstem
          45 33 714 33 vstem
          45 375 -107 callgsubr
          endchar
        </CharString>
        <CharString name="OE">
          294 -62 callgsubr
          hstem
          50 33 372 33 vstem
          724 721 rmoveto
          29 -289 vlineto
          -214 -171 -161 -212 -204 168 -173 209 hvcurveto
          297 -94 callsubr
          hlineto
          -53 -692 rmoveto
          -196 -156 152 196 197 156 147 196 hvcurveto
          20 -692 hlineto
          endchar
        </CharString>
        <CharString name="Oacute">
          425 -13 -60 callgsubr
          181 -20 hstem
          55 33 714 33 vstem
          55 375 -107 callgsubr
          49 210 -71 callgsubr
          endchar
        </CharString>
        <CharString name="Obreve">
          405 -13 -60 callgsubr
          65 -30 callsubr
          45 33 232 28 454 33 vstem
          45 375 -107 callgsubr
          -1 119 -106 callsubr
          endchar
        </CharString>
        <CharString name="Ocircumflex">
          425 -13 -60 callgsubr
          0 66 -16 callgsubr
          55 33 714 33 hintmask 11011100
          55 375 -107 callgsubr
          16 210 rmoveto
          -30 hlineto
          hintmask 10111100
          -134 -115 rlineto
          42 hlineto
          106 91 107 -91 rlineto
          41 hlineto
          endchar
        </CharString>
        <CharString name="Odieresis">
          425 -13 -60 callgsubr
          95 54 hstem
          55 33 276 -14 callgsubr
          276 33 vstem
          55 375 -107 callgsubr
          -81 151 rmoveto
          -92 callsubr
          19 10 -26 callsubr
          -10 9 -19 -19 -10 -9 -18 vhcurveto
          107 hmoveto
          -92 callsubr
          17 9 -26 callsubr
          -33 callsubr
          -19 -10 -9 -18 vhcurveto
          endchar
        </CharString>
        <CharString name="Ograve">
          425 -13 -60 callgsubr
          181 -20 hstem
          55 33 714 33 vstem
          55 375 -107 callgsubr
          -91 210 rmoveto
          139 -115 rlineto
          42 hlineto
          -140 -54 callsubr
        </CharString>
        <CharString name="Ohungarumlaut">
          405 -13 -60 callgsubr
          66 115 hstem
          45 33 714 33 vstem
          45 375 -107 callgsubr
          -12 210 -93 callgsubr
        </CharString>
        <CharString name="Omacron">
          405 -13 -60 callgsubr
          103 28 hstem
          45 33 714 33 vstem
          45 375 -107 callgsubr
          98 132 -67 callsubr
        </CharString>
        <CharString name="Oslash">
          415 -13 29 5 -21 734 29 hstemhm
          50 33 714 33 hintmask 01111000
          701 748 rmoveto
          -40 -54 rlineto
          44 -64 -74 25 -83 hhcurveto
          -213 -177 -176 -212 -120 57 -110 91 -73 hvcurveto
          -54 -72 -15 callsubr
          40 54 rlineto
          hintmask 10111000
          -43 61 71 -24 -16 callsubr
          107 -88 72 hvcurveto
          55 73 rlineto
          -300 -14 rmoveto
          76 68 -24 -40 59 hvcurveto
          -427 -574 rlineto
          -81 67 -52 99 113 -41 callsubr
          -75 -67 23 40 -59 vhcurveto
          428 572 rlineto
          80 -67 50 -98 -111 vvcurveto
          endchar
        </CharString>
        <CharString name="Oslashacute">
          405 -13 29 5 -21 734 29 181 -20 hstemhm
          45 33 714 33 hintmask 01111100
          694 748 rmoveto
          -40 -53 rlineto
          43 -63 -75 25 -81 hhcurveto
          -213 -177 -176 -212 -119 57 -110 89 -73 hvcurveto
          -54 -73 -15 callsubr
          41 55 rlineto
          hintmask 10111100
          -43 61 72 -25 -16 callsubr
          108 -89 72 hvcurveto
          54 72 rlineto
          -298 -14 rmoveto
          76 68 -24 -39 57 hvcurveto
          -426 -574 rlineto
          -81 67 -51 99 112 -41 callsubr
          -76 -67 23 40 -59 vhcurveto
          428 573 rlineto
          80 -67 51 -98 -112 vvcurveto
          -308 569 -71 callgsubr
          endchar
        </CharString>
        <CharString name="Otilde">
          425 -13 -60 callgsubr
          84 7 callsubr
          hstem
          55 33 714 33 vstem
          55 375 -107 callgsubr
          139 190 -105 callsubr
        </CharString>
        <CharString name="P">
          -75 18 callgsubr
          74 33 217 33 vstem
          74 -75 callgsubr
        </CharString>
        <CharString name="Q">
          405 -12 -60 callgsubr
          hstem
          45 33 714 33 vstem
          825 376 rmoveto
          213 -174 175 -216 -213 -177 -176 -212 -204 173 -184 211 vhcurveto
          11 hlineto
          76 72 23 39 60 hvcurveto
          62 -62 rlineto
          44 hlineto
          -81 81 rlineto
          91 72 61 115 120 vvcurveto
          -390 -359 rmoveto
          -196 -161 163 196 197 161 162 196 197 160 -162 -197 -113 -60 -106 -82 -66 hvcurveto
          -154 152 rlineto
          -43 hlineto
          173 -171 rlineto
          -35 -57 -66 -20 -68 hhcurveto
          endchar
        </CharString>
        <CharString name="R">
          18 callsubr
          -99 callsubr
          endchar
        </CharString>
        <CharString name="Racute">
          18 callsubr
          194 -20 -99 callsubr
          100 643 -71 callgsubr
          endchar
        </CharString>
        <CharString name="Rcaron">
          18 callsubr
          194 -20 -99 callsubr
          210 643 rmoveto
          -41 hlineto
          -107 -91 -106 91 rlineto
          -42 hlineto
          134 -115 rlineto
          30 hlineto
          endchar
        </CharString>
        <CharString name="S">
          33 -14 -2 callsubr
          hstem
          75 33 319 31 vstem
          377 -102 callsubr
          endchar
        </CharString>
        <CharString name="Sacute">
          33 -14 -2 callsubr
          181 -74 callgsubr
          319 31 vstem
          377 -102 callsubr
          -79 300 -71 callgsubr
          endchar
        </CharString>
        <CharString name="Scaron">
          53 -14 -2 callsubr
          -29 210 hstemhm
          85 33 319 31 hintmask 11011000
          387 -102 callsubr
          hintmask 10111000
          20 300 rmoveto
          -41 hlineto
          -107 -91 -106 91 rlineto
          -42 hlineto
          134 -115 rlineto
          30 hlineto
          endchar
        </CharString>
        <CharString name="Scedilla">
          33 -15 callgsubr
          100 26 35 -2 callsubr
          hstem
          75 33 189 24 106 31 vstem
          209 12 callgsubr
          -52 callgsubr
          -82 callsubr
          35 hlineto
          121 103 76 131 hvcurveto
          10 vlineto
          235 -350 9 168 vvcurveto
          5 vlineto
          72 54 42 68 60 56 -34 -56 31 vhcurveto
          51 vlineto
          45 -36 -53 23 -57 hhcurveto
          -81 -75 -45 -99 hvcurveto
          -7 vlineto
          -193 352 -8 -214 vvcurveto
          -6 vlineto
          -109 -86 -67 -105 -97 -67 57 71 -32 vhcurveto
          -54 vlineto
          36 -56 54 -39 79 -7 rrcurveto
          endchar
        </CharString>
        <CharString name="Scircumflex">
          33 -14 -2 callsubr
          0 66 -16 callgsubr
          75 33 319 31 hintmask 11011100
          377 -102 callsubr
          -112 300 rmoveto
          -30 hlineto
          hintmask 10111100
          -134 -115 rlineto
          42 hlineto
          106 91 107 -91 rlineto
          41 hlineto
          endchar
        </CharString>
        <CharString name="T">
          -48 -18 callgsubr
          hstem
          193 33 vstem
          397 -69 callgsubr
          endchar
        </CharString>
        <CharString name="Tbar">
          -48 21 -21 275 29 417 29 hstem
          193 33 vstem
          397 -84 callgsubr
          -377 -29 173 -417 -118 -29 118 -275 33 275 118 29 -118 417 171 hlineto
          endchar
        </CharString>
        <CharString name="Tcaron">
          -48 -18 callgsubr
          -29 223 hstemhm
          193 33 hintmask 11010000
          397 -69 callgsubr
          hintmask 10110000
          -41 223 rmoveto
          -41 hlineto
          -107 -91 -106 91 rlineto
          -42 hlineto
          134 -115 rlineto
          30 hlineto
          endchar
        </CharString>
        <CharString name="Thorn">
          -55 21 -21 153 29 420 29 118 -43 callsubr
          221 32 vstem
          75 hmoveto
          32 153 9 hlineto
          117 127 103 136 129 -115 110 -129 hvcurveto
          -9 118 -32 hlineto
          32 -147 rmoveto
          9 hlineto
          111 101 -97 -113 -119 -102 -91 -110 hvcurveto
          -9 hlineto
          endchar
        </CharString>
        <CharString name="U">
          -47 callsubr
          hstem
          75 33 381 33 vstem
          304 -104 callsubr
          endchar
        </CharString>
        <CharString name="Uacute">
          152 -18 callsubr
          214 -20 hstem
          85 33 381 33 vstem
          314 -104 callsubr
          54 958 -71 callgsubr
          endchar
        </CharString>
        <CharString name="Ubreve">
          -47 callsubr
          98 25 91 -74 callgsubr
          66 28 287 33 vstem
          304 -104 callsubr
          4 867 -106 callsubr
          endchar
        </CharString>
        <CharString name="Ucircumflex">
          152 -18 callsubr
          214 -20 hstem
          85 33 381 33 vstem
          314 -104 callsubr
          20 958 rmoveto
          -30 hlineto
          -134 -115 rlineto
          42 hlineto
          106 91 107 -91 rlineto
          41 hlineto
          endchar
        </CharString>
        <CharString name="Udieresis">
          152 -18 callsubr
          128 54 hstem
          85 33 109 -14 callgsubr
          110 33 vstem
          314 -104 callsubr
          -77 899 rmoveto
          -92 callsubr
          19 10 -26 callsubr
          -10 9 -19 -19 -10 -9 -18 vhcurveto
          107 hmoveto
          -92 callsubr
          17 9 -26 callsubr
          -33 callsubr
          -19 -10 -9 -18 vhcurveto
          endchar
        </CharString>
        <CharString name="Ugrave">
          152 -18 callsubr
          214 -20 hstem
          85 33 381 33 vstem
          314 -104 callsubr
          -86 958 rmoveto
          139 -115 rlineto
          42 hlineto
          -140 -54 callsubr
        </CharString>
        <CharString name="Uhungarumlaut">
          -47 callsubr
          99 115 hstem
          75 33 381 33 vstem
          304 -104 callsubr
          -7 958 -93 callgsubr
        </CharString>
        <CharString name="Umacron">
          -47 callsubr
          136 28 hstem
          75 33 381 33 vstem
          304 -104 callsubr
          103 880 -67 callsubr
        </CharString>
        <CharString name="Uogonek">
          132 -15 callgsubr
          161 29 735 -74 callgsubr
          381 33 vstem
          522 -84 callgsubr
          6 callgsubr
          hlineto
          -116 -84 -81 -106 -107 -84 82 115 vhcurveto
          538 -33 -539 vlineto
          -132 99 -93 120 vhcurveto
          4 hlineto
          -76 -109 -93 callsubr
          78 112 rlineto
          109 11 86 91 124 vvcurveto
          endchar
        </CharString>
        <CharString name="Uring">
          -47 callsubr
          82 24 102 24 hstem
          75 33 115 25 100 26 115 33 vstem
          304 -104 callsubr
          6 826 -98 callgsubr
        </CharString>
        <CharString name="Utilde">
          -47 callsubr
          117 7 callsubr
          hstem
          75 33 381 33 vstem
          304 -104 callsubr
          144 938 -105 callsubr
        </CharString>
        <CharString name="V">
          321 4 -21 767 -20 hstem
          393 -17 rmoveto
          373 767 rlineto
          -32 hlineto
          -338 -695 -340 695 1 callsubr
          endchar
        </CharString>
        <CharString name="W">
          -23 callgsubr
          -20 hstem
          -100 callsubr
          endchar
        </CharString>
        <CharString name="Wacute">
          -23 callgsubr
          -20 214 -20 hstem
          -100 callsubr
          541 194 -71 callgsubr
          endchar
        </CharString>
        <CharString name="Wcircumflex">
          -23 callgsubr
          79 -8 callsubr
          hstem
          -100 callsubr
          507 194 rmoveto
          -30 hlineto
          -134 -115 rlineto
          42 hlineto
          106 91 107 -91 rlineto
          41 hlineto
          endchar
        </CharString>
        <CharString name="Wdieresis">
          -23 callgsubr
          -20 128 54 hstem
          430 -14 callgsubr
          vstem
          -100 callsubr
          410 135 rmoveto
          -92 callsubr
          19 10 -26 callsubr
          -10 9 -19 -19 -10 -9 -18 vhcurveto
          107 hmoveto
          -92 callsubr
          17 9 -26 callsubr
          -33 callsubr
          -19 -10 -9 -18 vhcurveto
          endchar
        </CharString>
        <CharString name="Wgrave">
          -23 callgsubr
          -20 214 -20 hstem
          -100 callsubr
          401 194 rmoveto
          139 -115 rlineto
          42 hlineto
          -140 -54 callsubr
        </CharString>
        <CharString name="X">
          18 -44 callgsubr
          419 -70 callsubr
        </CharString>
        <CharString name="Y">
          59 -44 callgsubr
          248 33 vstem
          504 -84 callgsubr
          -30 hlineto
          -207 -415 -211 415 1 callsubr
          228 -450 rlineto
          -300 33 300 vlineto
          endchar
        </CharString>
        <CharString name="Yacute">
          79 -39 callgsubr
          258 33 vstem
          514 -84 callgsubr
          -30 hlineto
          -207 -415 -211 415 1 callsubr
          228 -450 rlineto
          -300 33 300 vlineto
          30 644 -71 callgsubr
          endchar
        </CharString>
        <CharString name="Ycircumflex">
          59 -39 callgsubr
          248 33 vstem
          504 -84 callgsubr
          -30 hlineto
          -207 -415 -211 415 1 callsubr
          228 -450 rlineto
          -300 33 300 vlineto
          -3 644 rmoveto
          -30 hlineto
          -134 -115 rlineto
          42 hlineto
          106 91 107 -91 rlineto
          41 hlineto
          endchar
        </CharString>
        <CharString name="Ydieresis">
          79 -84 callsubr
          128 54 hstem
          191 58 9 33 7 55 vstem
          514 -84 callgsubr
          -30 hlineto
          -207 -415 -211 415 1 callsubr
          228 -450 rlineto
          -300 33 300 vlineto
          -100 585 rmoveto
          -92 callsubr
          19 10 -26 callsubr
          -10 9 -19 -19 -10 -9 -18 vhcurveto
          107 hmoveto
          -92 callsubr
          17 9 -26 callsubr
          -33 callsubr
          -19 -10 -9 -18 vhcurveto
          endchar
        </CharString>
        <CharString name="Ygrave">
          59 -39 callgsubr
          248 33 vstem
          504 -84 callgsubr
          -30 hlineto
          -207 -415 -211 415 1 callsubr
          228 -450 rlineto
          -300 33 300 vlineto
          -110 644 rmoveto
          139 -115 rlineto
          42 hlineto
          -140 -54 callsubr
        </CharString>
        <CharString name="Z">
          -38 3 callsubr
          hstem
          405 -84 callgsubr
          -380 -29 330 hlineto
          -330 -721 rlineto
          377 29 -328 hlineto
          endchar
        </CharString>
        <CharString name="Zacute">
          -38 3 callsubr
          -1 callsubr
          405 -84 callgsubr
          -380 -29 330 hlineto
          -330 -721 rlineto
          377 29 -328 hlineto
          189 915 -71 callgsubr
          endchar
        </CharString>
        <CharString name="Zcaron">
          -18 3 callsubr
          -29 223 hstemhm
          hintmask 11000000
          415 -84 callgsubr
          -380 -29 330 hlineto
          -330 -721 rlineto
          377 29 -328 hlineto
          hintmask 10100000
          287 915 rmoveto
          -41 hlineto
          -107 -91 -106 91 rlineto
          -42 hlineto
          134 -115 rlineto
          30 hlineto
          endchar
        </CharString>
        <CharString name="Zdotaccent">
          -38 3 callsubr
          109 54 hstem
          184 58 vstem
          405 -84 callgsubr
          -380 -29 330 hlineto
          -330 -721 rlineto
          377 29 -328 hlineto
          110 857 rmoveto
          -92 callsubr
          19 10 -26 callsubr
          -10 9 -19 -19 -10 -9 -18 vhcurveto
          endchar
        </CharString>
        <CharString name="_01">
          endchar
        </CharString>
        <CharString name="_1">
          -366 -38 callgsubr
          -20 hstem
          46 -195 -101 callgsubr
        </CharString>
        <CharString name="_10">
          endchar
        </CharString>
        <CharString name="_11">
          endchar
        </CharString>
        <CharString name="_12">
          endchar
        </CharString>
        <CharString name="_127">
          endchar
        </CharString>
        <CharString name="_129">
          endchar
        </CharString>
        <CharString name="_14">
          endchar
        </CharString>
        <CharString name="_141">
          endchar
        </CharString>
        <CharString name="_142">
          endchar
        </CharString>
        <CharString name="_143">
          endchar
        </CharString>
        <CharString name="_144">
          endchar
        </CharString>
        <CharString name="_15">
          endchar
        </CharString>
        <CharString name="_157">
          endchar
        </CharString>
        <CharString name="_158">
          endchar
        </CharString>
        <CharString name="_16">
          endchar
        </CharString>
        <CharString name="_160">
          endchar
        </CharString>
        <CharString name="_17">
          endchar
        </CharString>
        <CharString name="_170">
          endchar
        </CharString>
        <CharString name="_178">
          endchar
        </CharString>
        <CharString name="_179">
          endchar
        </CharString>
        <CharString name="_18">
          endchar
        </CharString>
        <CharString name="_185">
          endchar
        </CharString>
        <CharString name="_186">
          endchar
        </CharString>
        <CharString name="_188">
          endchar
        </CharString>
        <CharString name="_189">
          endchar
        </CharString>
        <CharString name="_19">
          endchar
        </CharString>
        <CharString name="_190">
          endchar
        </CharString>
        <CharString name="_2">
          endchar
        </CharString>
        <CharString name="_20">
          endchar
        </CharString>
        <CharString name="_21">
          endchar
        </CharString>
        <CharString name="_22">
          endchar
        </CharString>
        <CharString name="_23">
          endchar
        </CharString>
        <CharString name="_24">
          endchar
        </CharString>
        <CharString name="_25">
          endchar
        </CharString>
        <CharString name="_26">
          endchar
        </CharString>
        <CharString name="_27">
          endchar
        </CharString>
        <CharString name="_28">
          endchar
        </CharString>
        <CharString name="_29">
          endchar
        </CharString>
        <CharString name="_3">
          endchar
        </CharString>
        <CharString name="_30">
          endchar
        </CharString>
        <CharString name="_31">
          endchar
        </CharString>
        <CharString name="_4">
          endchar
        </CharString>
        <CharString name="_5">
          endchar
        </CharString>
        <CharString name="_6">
          endchar
        </CharString>
        <CharString name="_7">
          endchar
        </CharString>
        <CharString name="_8">
          endchar
        </CharString>
        <CharString name="_9">
          endchar
        </CharString>
        <CharString name="a">
          104 -11 -83 callgsubr
          -11 -8 callgsubr
          412 30 hintmask 10011100
          15 callsubr
          hintmask 10101100
          -100 callgsubr
          hintmask 01011100
          -30 callgsubr
          hintmask 10101100
          -236 17 rmoveto
          -91 callgsubr
          115 91 -10 callsubr
          -91 -95 -115 hvcurveto
          endchar
        </CharString>
        <CharString name="aacute">
          124 -11 -83 callgsubr
          -11 -20 214 -20 hstemhm
          45 -26 callgsubr
          30 hintmask 10011110
          -17 callsubr
          hintmask 10101110
          -100 callgsubr
          hintmask 01011110
          -30 callgsubr
          hintmask 10101110
          -236 17 rmoveto
          -91 callgsubr
          115 91 -10 callsubr
          -91 -95 -115 hvcurveto
          61 627 -71 callgsubr
          endchar
        </CharString>
        <CharString name="abreve">
          104 -11 -83 callgsubr
          -11 -20 98 25 91 -8 callgsubr
          93 28 291 30 hintmask 1001111110000000
          15 callsubr
          hintmask 1010111110000000
          -100 callgsubr
          hintmask 0101111110000000
          -30 callgsubr
          hintmask 1010111110000000
          -236 17 rmoveto
          -91 callgsubr
          115 91 -10 callsubr
          -91 -95 -115 hvcurveto
          11 536 -106 callsubr
          endchar
        </CharString>
        <CharString name="acircumflex">
          124 -11 -83 callgsubr
          -11 -20 31 68 115 -20 -22 callgsubr
          hintmask 10100111
          -100 callgsubr
          hintmask 01011111
          -30 callgsubr
          hintmask 10100111
          -236 17 rmoveto
          -91 callgsubr
          115 91 -10 callsubr
          -91 -95 -115 hvcurveto
          27 627 rmoveto
          -30 hlineto
          hintmask 10011111
          -134 -115 rlineto
          42 hlineto
          106 91 107 -91 rlineto
          41 hlineto
          endchar
        </CharString>
        <CharString name="acute">
          -254 -3 callgsubr
          155 644 -71 callgsubr
          endchar
        </CharString>
        <CharString name="adieresis">
          124 -11 -83 callgsubr
          -11 -20 128 54 hstemhm
          45 32 136 -14 callgsubr
          114 30 hintmask 1001111110000000
          -17 callsubr
          hintmask 1010111110000000
          -100 callgsubr
          hintmask 0101111110000000
          -30 callgsubr
          hintmask 1010111110000000
          -236 17 rmoveto
          -91 callgsubr
          115 91 -10 callsubr
          -91 -95 -115 hvcurveto
          -70 568 rmoveto
          -92 callsubr
          19 10 -26 callsubr
          -10 9 -19 -19 -10 -9 -18 vhcurveto
          107 hmoveto
          -92 callsubr
          17 9 -26 callsubr
          -33 callsubr
          -19 -10 -9 -18 vhcurveto
          endchar
        </CharString>
        <CharString name="ae">
          467 -13 callgsubr
          24 hintmask 10101100
          -59 callgsubr
          hintmask 10011100
          111 -26 -105 vlineto
          hintmask 10101100
          -72 callsubr
          hintmask 01101100
          -105 26 112 vlineto
          hintmask 10101100
          -72 40 74 -51 85 hhcurveto
          15 -3 callsubr
          -616 -50 rmoveto
          -91 callgsubr
          115 91 -10 callsubr
          -91 -95 -115 hvcurveto
          230 208 rmoveto
          113 95 95 112 51 50 -22 -32 37 -23 callsubr
          -289 rlineto
          -31 35 -23 52 48 vvcurveto
          endchar
        </CharString>
        <CharString name="aeacute">
          467 -11 -83 callgsubr
          -11 -20 214 -20 hstemhm
          40 -26 callgsubr
          24 hintmask 10101110
          -59 callgsubr
          hintmask 10011110
          111 -26 -105 vlineto
          hintmask 10101110
          -72 callsubr
          hintmask 01101110
          -105 26 112 vlineto
          hintmask 10101110
          -72 40 74 -51 85 hhcurveto
          15 -3 callsubr
          -616 -50 rmoveto
          -91 callgsubr
          115 91 -10 callsubr
          -91 -95 -115 hvcurveto
          230 208 rmoveto
          113 95 95 112 51 50 -22 -32 37 -23 callsubr
          -289 rlineto
          -31 35 -23 52 48 vvcurveto
          7 419 -71 callgsubr
          endchar
        </CharString>
        <CharString name="agrave">
          124 -11 -83 callgsubr
          -11 -20 214 -20 hstemhm
          45 -26 callgsubr
          30 hintmask 10011110
          -17 callsubr
          hintmask 10101110
          -100 callgsubr
          hintmask 01011110
          -30 callgsubr
          hintmask 10101110
          -236 17 rmoveto
          -91 callgsubr
          115 91 -10 callsubr
          -91 -95 -115 hvcurveto
          -79 627 rmoveto
          139 -115 rlineto
          42 hlineto
          -140 -54 callsubr
        </CharString>
        <CharString name="amacron">
          104 -11 -83 callgsubr
          -11 -20 136 28 hstemhm
          35 -26 callgsubr
          30 hintmask 10011110
          15 callsubr
          hintmask 10101110
          -100 callgsubr
          hintmask 01011110
          -30 callgsubr
          hintmask 10101110
          -236 17 rmoveto
          -91 callgsubr
          115 91 -10 callsubr
          -91 -95 -115 hvcurveto
          110 549 -67 callsubr
        </CharString>
        <CharString name="ampersand">
          231 -14 29 6 -21 460 28 244 28 hstemhm
          35 31 62 32 352 30 hintmask 10111110
          35 238 rmoveto
          -137 114 -115 140 99 95 63 79 29 vhcurveto
          hintmask 01111110
          -128 30 460 139 28 -308 -28 139 -223 vlineto
          hintmask 10111110
          -123 -103 -99 -120 -120 -103 100 123 119 103 103 120 vhcurveto
          8 28 -14 hlineto
          -67 -56 57 64 67 56 56 67 49 49 -33 -44 19 hvcurveto
          53 vlineto
          32 -28 -42 20 -47 hhcurveto
          -86 -69 -67 -84 -56 37 -53 48 -24 hvcurveto
          -106 -32 -72 -100 -106 vvcurveto
          endchar
        </CharString>
        <CharString name="aogonek">
          104 -15 callgsubr
          164 -83 callgsubr
          -11 -8 callgsubr
          412 30 hintmask 11001110
          15 callsubr
          hintmask 11010110
          -100 callgsubr
          hintmask 10101110
          -112 3 vlineto
          -86 -123 -93 callsubr
          87 125 rlineto
          1 hlineto
          hintmask 11010110
          -236 17 rmoveto
          -91 callgsubr
          115 91 -10 callsubr
          -91 -95 -115 hvcurveto
          endchar
        </CharString>
        <CharString name="approxequal">
          68 191 31 41 31 23 31 41 31 hstem
          458 287 rmoveto
          -58 callsubr
          -33 -3 -29 -16 -26 -29 rrcurveto
          -53 vlineto
          -58 callgsubr
          -383 82 rmoveto
          -58 callgsubr
          50 vlineto
          -58 callsubr
          -33 -3 -29 -16 -26 -29 rrcurveto
          endchar
        </CharString>
        <CharString name="aring">
          124 -11 -83 callgsubr
          -11 -20 82 24 102 24 hstemhm
          45 32 142 25 100 26 119 30 hintmask 1001111111000000
          -17 callsubr
          hintmask 1010111111000000
          -100 callgsubr
          hintmask 0101111111000000
          -30 callgsubr
          hintmask 1010111111000000
          -236 17 rmoveto
          -91 callgsubr
          115 91 -10 callsubr
          -91 -95 -115 hvcurveto
          13 495 -98 callgsubr
        </CharString>
        <CharString name="asciicircum">
          -135 561 -21 139 -20 hstem
          177 679 rmoveto
          -22 hlineto
          -140 -139 rlineto
          42 hlineto
          109 108 108 -108 rlineto
          41 hlineto
          endchar
        </CharString>
        <CharString name="asciitilde">
          68 314 29 43 29 hstem
          458 408 rmoveto
          -58 callsubr
          -33 -3 -29 -16 -26 -29 rrcurveto
          -51 vlineto
          -58 callgsubr
          endchar
        </CharString>
        <CharString name="asterisk">
          -152 522 -21 108 26 110 -20 hstem
          146 25 vstem
          75 725 rmoveto
          -20 -20 71 -70 rlineto
          -91 -26 90 hlineto
          -69 -67 21 -21 69 70 rlineto
          -90 25 89 vlineto
          67 -69 22 21 -69 67 rlineto
          87 26 -87 hlineto
          70 70 -21 20 -69 -71 rlineto
          91 -25 -91 vlineto
          endchar
        </CharString>
        <CharString name="at">
          415 -13 29 123 -87 callgsubr
          123 29 hstem
          50 33 119 -26 callgsubr
          30 121 33 vstem
          447 -95 callgsubr
          236 -134 rmoveto
          -32 -105 hlineto
          -72 callsubr
          -105 32 vlineto
          -236 17 rmoveto
          -91 callgsubr
          115 91 -10 callsubr
          -91 -95 -115 hvcurveto
          endchar
        </CharString>
        <CharString name="atilde">
          124 -11 -83 callgsubr
          -11 -20 117 7 callsubr
          -22 callgsubr
          hintmask 10101111
          -100 callgsubr
          hintmask 01011111
          -30 callgsubr
          hintmask 10101111
          -236 17 rmoveto
          -91 callgsubr
          115 91 -10 callsubr
          -91 -95 -115 hvcurveto
          151 607 -105 callsubr
        </CharString>
        <CharString name="b">
          104 -11 -83 callgsubr
          289 -42 callsubr
          410 32 hintmask 01111100
          60 hmoveto
          32 109 hlineto
          hintmask 10111100
          -76 41 85 -44 78 hhcurveto
          133 105 107 129 129 -105 107 -133 -80 -87 -46 -75 -37 hvcurveto
          410 -32 vlineto
          hintmask 01111100
          hintmask 10111100
          236 -733 rmoveto
          -91 callgsubr
          115 91 -10 callsubr
          -91 -95 -115 hvcurveto
          endchar
        </CharString>
        <CharString name="backslash">
          21 callgsubr
          25 748 rmoveto
          558 -748 rlineto
          38 hlineto
          -558 748 rlineto
          endchar
        </CharString>
        <CharString name="bar">
          -282 21 -21 748 -39 callsubr
          75 hmoveto
          33 748 -33 hlineto
          endchar
        </CharString>
        <CharString name="braceleft">
          21 callsubr
          134 33 vstem
          237 817 rmoveto
          -59 -28 -44 -58 -64 vvcurveto
          -161 vlineto
          -59 -45 -56 -55 -16 vhcurveto
          54 -16 46 -52 -61 vvcurveto
          -169 vlineto
          -63 44 -61 59 -28 vhcurveto
          30 vlineto
          -41 23 -29 44 55 vvcurveto
          169 vlineto
          52 -24 49 -43 28 vhcurveto
          43 28 24 52 51 vvcurveto
          161 vlineto
          55 29 44 41 -41 callgsubr
        </CharString>
        <CharString name="braceright">
          21 callsubr
          92 33 vstem
          20 787 rmoveto
          43 -21 29 -44 -55 vvcurveto
          -161 vlineto
          -51 23 -52 43 -28 vhcurveto
          -43 -28 -23 -49 -52 vvcurveto
          -169 vlineto
          -55 -29 -44 -43 -23 vhcurveto
          -30 vlineto
          60 27 45 63 62 vvcurveto
          169 vlineto
          60 46 53 52 16 vhcurveto
          -52 16 -46 56 59 vvcurveto
          161 vlineto
          64 -45 58 -60 28 vhcurveto
          endchar
        </CharString>
        <CharString name="bracketleft">
          -250 -83 29 841 29 hstem
          72 33 vstem
          105 787 rmoveto
          95 29 -128 -899 128 29 -95 hlineto
          endchar
        </CharString>
        <CharString name="bracketright">
          -250 -83 29 841 29 hstem
          112 33 vstem
          112 -54 rmoveto
          -97 -29 130 899 -130 -29 97 hlineto
          endchar
        </CharString>
        <CharString name="breve">
          -186 528 -30 callsubr
          15 28 vstem
          139 553 -106 callsubr
          endchar
        </CharString>
        <CharString name="brokenbar">
          -250 -44 callgsubr
          90 35 vstem
          125 hmoveto
          283 -35 -283 vlineto
          35 466 rmoveto
          284 -35 -284 vlineto
          endchar
        </CharString>
        <CharString name="bullet">
          -150 239 94 hstem
          110 95 vstem
          110 286 rmoveto
          -29 16 -18 31 29 19 18 29 31 -19 16 -29 -31 -16 -16 -31 vhcurveto
          endchar
        </CharString>
        <CharString name="c">
          11 -13 -87 callgsubr
          hstem
          35 32 vstem
          451 116 rmoveto
          -61 -41 -66 -40 -71 hhcurveto
          -86 callgsubr
          71 66 -40 -60 41 14 callsubr
          47 -44 -62 -81 callsubr
          -123 104 -113 130 7 callgsubr
          72 58 30 47 43 hvcurveto
          endchar
        </CharString>
        <CharString name="cacute">
          11 -13 -87 callgsubr
          185 -20 hstem
          35 32 vstem
          451 116 rmoveto
          -61 -41 -66 -40 -71 hhcurveto
          -86 callgsubr
          71 66 -40 -60 41 14 callsubr
          47 -44 -62 -81 callsubr
          -123 104 -113 130 7 callgsubr
          72 58 30 47 43 hvcurveto
          -164 580 -71 callgsubr
          endchar
        </CharString>
        <CharString name="caron">
          -135 -3 callgsubr
          314 644 rmoveto
          -41 hlineto
          -107 -91 -106 91 rlineto
          -42 hlineto
          134 -115 rlineto
          30 hlineto
          endchar
        </CharString>
        <CharString name="ccaron">
          11 -13 -87 callgsubr
          -28 213 hstemhm
          35 32 hintmask 11010000
          451 116 rmoveto
          -61 -41 -66 -40 -71 hhcurveto
          -86 callgsubr
          71 66 -40 -60 41 14 callsubr
          47 -44 -62 -81 callsubr
          -123 104 -113 130 7 callgsubr
          72 58 30 47 43 hvcurveto
          hintmask 10110000
          -26 580 rmoveto
          -41 hlineto
          -107 -91 -106 91 rlineto
          -42 hlineto
          134 -115 rlineto
          30 hlineto
          endchar
        </CharString>
        <CharString name="ccedilla">
          31 -15 callgsubr
          100 26 36 -87 callgsubr
          hstemhm
          45 32 162 112 -24 24 hintmask 11111100
          239 12 callgsubr
          hintmask 11111010
          -52 callgsubr
          hintmask 11111100
          -82 callsubr
          37 hlineto
          -1 3 5 0 7 hhcurveto
          9 hlineto
          72 58 30 47 43 hvcurveto
          52 vlineto
          -61 -41 -66 -40 -71 hhcurveto
          -86 callgsubr
          71 66 -40 -60 41 14 callsubr
          47 -44 -62 -81 callsubr
          -108 82 -105 112 -19 hvcurveto
          endchar
        </CharString>
        <CharString name="ccircumflex">
          11 -13 -87 callgsubr
          0 70 115 -8 callgsubr
          hintmask 11011000
          451 116 rmoveto
          -61 -41 -66 -40 -71 hhcurveto
          -86 callgsubr
          71 66 -40 -60 41 14 callsubr
          47 -44 -62 -81 callsubr
          -123 104 -113 130 7 callgsubr
          72 58 30 47 43 hvcurveto
          -158 580 rmoveto
          -30 hlineto
          hintmask 10111000
          -134 -115 rlineto
          42 hlineto
          106 91 107 -91 rlineto
          41 hlineto
          endchar
        </CharString>
        <CharString name="cdotaccent">
          11 -13 -87 callgsubr
          100 54 hstem
          35 32 174 58 vstem
          451 116 rmoveto
          -61 -41 -66 -40 -71 hhcurveto
          -86 callgsubr
          71 66 -40 -60 41 14 callsubr
          47 -44 -62 -81 callsubr
          -123 104 -113 130 7 callgsubr
          72 58 30 47 43 hvcurveto
          -210 522 rmoveto
          -92 callsubr
          19 10 -26 callsubr
          -10 9 -19 -19 -10 -9 -18 vhcurveto
          endchar
        </CharString>
        <CharString name="cedilla">
          -323 -15 callgsubr
          100 26 58 -20 hstemhm
          15 112 -24 24 hintmask 11110000
          15 12 callgsubr
          hintmask 11101000
          -52 callgsubr
          hintmask 11110000
          -82 callsubr
          58 -25 hlineto
          endchar
        </CharString>
        <CharString name="cent">
          76 -134 -21 146 28 409 28 108 -20 hstemhm
          50 35 201 34 -34 220 hintmask 11111100
          286 -155 rmoveto
          34 146 4 hlineto
          hintmask 11111010
          69 70 26 47 43 hvcurveto
          52 vlineto
          -61 -41 -69 -36 -71 hhcurveto
          hintmask 11111100
          -5 409 5 hlineto
          hintmask 11111010
          71 69 -37 -60 41 14 callsubr
          47 -44 -65 27 -72 hhcurveto
          hintmask 11111100
          -5 108 -34 -108 -5 hlineto
          -153 -78 -113 -120 -116 84 -116 148 hvcurveto
          4 hlineto
          437 vmoveto
          -409 -5 vlineto
          -133 -63 99 105 104 63 101 133 hvcurveto
          endchar
        </CharString>
        <CharString name="circumflex">
          -135 -3 callgsubr
          182 644 rmoveto
          -30 hlineto
          -134 -115 rlineto
          42 hlineto
          106 91 107 -91 rlineto
          41 hlineto
          endchar
        </CharString>
        <CharString name="colon">
          -228 -7 62 206 62 hstem
          85 67 vstem
          85 24 rmoveto
          4 callsubr
          14 11 20 20 -14 -19 callgsubr
          268 vmoveto
          4 callsubr
          14 11 20 20 -14 19 callgsubr
        </CharString>
        <CharString name="comma">
          -326 -42 -21 77 -21 62 -20 hstem
          66 -63 -101 callgsubr
        </CharString>
        <CharString name="copyright">
          425 -13 29 124 -87 callgsubr
          122 29 hstem
          55 33 120 32 562 33 vstem
          452 -95 callgsubr
          179 -465 rmoveto
          -61 -41 -66 -40 -71 hhcurveto
          -86 callgsubr
          71 66 -40 -60 41 14 callsubr
          47 -44 -62 -81 callsubr
          -123 104 -113 126 hvcurveto
          15 hlineto
          69 59 30 47 43 hvcurveto
          endchar
        </CharString>
        <CharString name="currency">
          378 -12 32 708 33 hstem
          35 34 708 31 vstem
          135 640 rmoveto
          -64 -76 -36 -98 -93 vvcurveto
          -92 33 -95 68 -73 vhcurveto
          -85 -86 24 -25 86 86 rlineto
          -68 72 95 -32 92 hhcurveto
          96 94 35 65 76 hvcurveto
          83 -83 24 25 -85 83 rlineto
          67 76 33 92 92 vvcurveto
          89 -33 94 -69 79 vhcurveto
          87 87 -22 26 -89 -90 rlineto
          68 -76 -88 35 -96 hhcurveto
          -92 -98 -32 -65 -73 hvcurveto
          -84 85 -25 -26 rlineto
          624 -94 rmoveto
          72 -71 31 -96 -88 vvcurveto
          -91 -33 -88 -72 -69 vhcurveto
          -69 -72 -89 -37 -91 hhcurveto
          -92 -86 33 69 -71 hvcurveto
          -71 68 -31 92 91 vvcurveto
          89 32 92 72 72 vhcurveto
          69 69 91 33 89 hhcurveto
          95 89 -31 -68 68 hvcurveto
          endchar
        </CharString>
        <CharString name="d">
          104 -11 -83 callgsubr
          289 -20 callsubr
          hintmask 10111100
          509 -84 callgsubr
          -32 -410 -75 callsubr
          hintmask 01111100
          -109 32 vlineto
          hintmask 10111100
          -236 17 rmoveto
          -115 -91 95 113 111 91 97 115 111 95 -10 callsubr
          -95 -95 -111 hvcurveto
          endchar
        </CharString>
        <CharString name="dagger">
          -4 21 -21 284 31 433 2 callsubr
          31 -139 433 -33 -433 -139 -31 10 callgsubr
        </CharString>
        <CharString name="daggerdbl">
          -4 21 -21 284 29 153 31 251 2 callsubr
          29 -139 153 139 31 -139 251 -33 -251 -139 -31 139 -153 -139 -29 10 callgsubr
        </CharString>
        <CharString name="dcaron">
          180 -11 -83 callgsubr
          289 -20 21 -20 callsubr
          0 50 hintmask 10110110
          509 -84 callgsubr
          -32 -410 -75 callsubr
          hintmask 01110110
          -109 32 vlineto
          hintmask 10101101
          -236 17 rmoveto
          -115 -91 95 113 111 91 97 115 111 95 -10 callsubr
          -95 -95 -111 hvcurveto
          317 616 -101 callgsubr
        </CharString>
        <CharString name="dcroat">
          130 -11 -83 callgsubr
          105 29 155 -20 callsubr
          hintmask 10111110
          509 -84 callgsubr
          -32 -155 -117 -29 117 -226 -75 callsubr
          hintmask 01111110
          -109 32 566 67 29 -67 vlineto
          hintmask 10111110
          -236 -578 rmoveto
          -115 -91 95 113 111 91 97 115 111 95 -10 callsubr
          -95 -95 -111 hvcurveto
          endchar
        </CharString>
        <CharString name="degree">
          -274 600 24 102 24 hstem
          20 25 100 26 vstem
          97 600 -98 callgsubr
        </CharString>
        <CharString name="dieresis">
          -273 558 54 hstem
          15 -14 callgsubr
          vstem
          15 585 rmoveto
          -92 callsubr
          19 10 -26 callsubr
          -10 9 -19 -19 -10 -9 -18 vhcurveto
          107 hmoveto
          -92 callsubr
          17 9 -26 callsubr
          -33 callsubr
          -19 -10 -9 -18 vhcurveto
          endchar
        </CharString>
        <CharString name="divide">
          -4 255 62 70 31 77 62 hstem
          199 69 vstem
          386 387 -35 callsubr
          124 -101 rmoveto
          -92 callgsubr
          240 vmoveto
          -27 callsubr
        </CharString>
        <CharString name="dollar">
          42 -52 -21 59 29 800 -20 hstem
          73 33 128 31 176 31 vstem
          35 89 rmoveto
          40 -59 75 -41 84 -3 rrcurveto
          -59 31 61 vlineto
          113 16 94 94 123 vvcurveto
          131 -108 49 -99 43 vhcurveto
          286 vlineto
          51 -8 59 -33 24 -45 rrcurveto
          48 vlineto
          -33 39 -48 24 -53 4 rrcurveto
          56 -31 -56 vlineto
          -75 -8 -86 -53 -101 vvcurveto
          -95 81 -45 80 -35 vhcurveto
          -407 vlineto
          -86 3 -79 54 -34 69 rrcurveto
          406 77 rmoveto
          -104 -80 -81 -96 -16 vhcurveto
          393 vlineto
          87 -37 89 -45 -110 vvcurveto
          -335 377 rmoveto
          76 67 48 61 11 vhcurveto
          -274 vlineto
          -68 32 -60 35 72 vvcurveto
          endchar
        </CharString>
        <CharString name="dotaccent">
          -377 559 54 hstem
          15 58 vstem
          15 586 rmoveto
          -92 callsubr
          19 10 -26 callsubr
          -10 9 -19 -19 -10 -9 -18 vhcurveto
          endchar
        </CharString>
        <CharString name="dotlessi">
          13 callgsubr
          449 -20 hstem
          73 -52 callsubr
          endchar
        </CharString>
        <CharString name="e">
          -10 callgsubr
          hstem
          40 32 vstem
          457 -107 callsubr
          endchar
        </CharString>
        <CharString name="eacute">
          50 -44 callsubr
          184 -20 hstem
          50 32 vstem
          467 -107 callsubr
          225 420 -71 callgsubr
          endchar
        </CharString>
        <CharString name="ebreve">
          -10 callgsubr
          68 -30 callsubr
          40 32 51 28 vstem
          457 -107 callsubr
          175 329 -106 callsubr
          endchar
        </CharString>
        <CharString name="ecaron">
          -10 callgsubr
          -28 212 hstemhm
          40 32 hintmask 11010000
          457 -107 callsubr
          hintmask 10110000
          323 420 rmoveto
          -41 hlineto
          -107 -91 -106 91 rlineto
          -42 hlineto
          134 -115 rlineto
          30 hlineto
          endchar
        </CharString>
        <CharString name="ecircumflex">
          50 -44 callsubr
          0 69 -16 callgsubr
          50 32 hintmask 11011000
          467 -107 callsubr
          191 420 rmoveto
          -30 hlineto
          hintmask 10111000
          -134 -115 rlineto
          42 hlineto
          106 91 107 -91 rlineto
          41 hlineto
          endchar
        </CharString>
        <CharString name="edieresis">
          50 -44 callsubr
          98 54 hstem
          50 32 94 -14 callgsubr
          vstem
          467 -107 callsubr
          94 361 rmoveto
          -92 callsubr
          19 10 -26 callsubr
          -10 9 -19 -19 -10 -9 -18 vhcurveto
          107 hmoveto
          -92 callsubr
          17 9 -26 callsubr
          -33 callsubr
          -19 -10 -9 -18 vhcurveto
          endchar
        </CharString>
        <CharString name="edotaccent">
          -10 callgsubr
          99 54 hstem
          40 32 146 58 vstem
          457 -107 callsubr
          146 362 rmoveto
          -92 callsubr
          19 10 -26 callsubr
          -10 9 -19 -19 -10 -9 -18 vhcurveto
          endchar
        </CharString>
        <CharString name="egrave">
          50 -44 callsubr
          184 -20 hstem
          50 32 vstem
          467 -107 callsubr
          85 420 rmoveto
          139 -115 rlineto
          42 hlineto
          -140 -54 callsubr
        </CharString>
        <CharString name="eight">
          104 -14 29 445 28 244 28 hstem
          30 33 62 32 246 32 71 33 vstem
          435 609 rmoveto
          84 -69 67 -88 -84 -69 -67 -84 -56 37 -53 48 -24 vhcurveto
          -106 -32 -74 -100 -106 vvcurveto
          -137 116 -115 138 141 114 114 138 108 -76 105 -110 27 vhcurveto
          51 27 31 49 55 vvcurveto
          -278 hmoveto
          67 57 56 64 68 57 -56 -67 -64 -57 -57 -68 -64 -57 57 64 vhcurveto
          127 -594 rmoveto
          -119 -102 100 123 119 102 103 119 123 99 -103 -119 -123 -99 -100 -123 hvcurveto
          endchar
        </CharString>
        <CharString name="ellipsis">
          41 -7 62 hstem
          75 69 78 69 71 69 vstem
          75 24 rmoveto
          -92 callgsubr
          147 hmoveto
          -92 callgsubr
          140 hmoveto
          -27 callsubr
        </CharString>
        <CharString name="emacron">
          -10 callgsubr
          106 28 hstem
          40 32 vstem
          457 -107 callsubr
          274 342 -67 callsubr
        </CharString>
        <CharString name="emdash">
          29 282 31 hstem
          479 282 rmoveto
          31 -464 -31 vlineto
          endchar
        </CharString>
        <CharString name="endash">
          -57 282 31 hstem
          358 282 rmoveto
          31 -308 -31 vlineto
          endchar
        </CharString>
        <CharString name="eogonek">
          30 -15 callgsubr
          163 -87 callgsubr
          hstem
          40 32 vstem
          457 -102 callgsubr
          108 -113 128 7 callgsubr
          5 hlineto
          -77 -111 -93 callsubr
          80 116 56 8 46 28 35 39 rlinecurve
          -385 158 rmoveto
          113 95 95 111 51 50 -22 -32 37 -23 callsubr
          -289 rlineto
          -31 35 -22 52 48 vvcurveto
          endchar
        </CharString>
        <CharString name="equal">
          -54 333 29 99 31 hstem
          361 461 -35 callsubr
          311 -128 rmoveto
          29 -311 -29 vlineto
          endchar
        </CharString>
        <CharString name="eth">
          106 -13 -87 callgsubr
          226 -20 hstem
          55 12 callsubr
          vstem
          107 504 rmoveto
          185 76 rlineto
          93 -37 115 -70 -133 vvcurveto
          -9 vlineto
          81 -40 -83 47 -84 hhcurveto
          -133 -105 -107 -129 -123 101 -113 130 hvcurveto
          15 hlineto
          126 104 116 125 hvcurveto
          76 vlineto
          185 -92 58 -112 48 vhcurveto
          133 56 rlineto
          31 vlineto
          -170 -72 -183 75 rlineto
          -29 vlineto
          147 -61 -147 -62 rlineto
          186 -518 rmoveto
          -115 -91 95 113 111 91 97 115 111 95 -10 callsubr
          -95 -95 -111 hvcurveto
          endchar
        </CharString>
        <CharString name="exclam">
          -239 -7 62 695 -20 hstemhm
          80 66 -48 33 hintmask 11010000
          98 -84 callgsubr
          -650 33 650 vlineto
          hintmask 11100000
          -51 -726 -32 callsubr
        </CharString>
        <CharString name="exclamdown">
          -239 21 -21 695 62 hstemhm
          80 66 -48 33 hintmask 11010000
          131 hmoveto
          650 -33 -650 vlineto
          hintmask 11100000
          -18 726 -32 callsubr
        </CharString>
        <CharString name="f">
          -213 21 -36 callsubr
          14 callgsubr
          vstem
          231 632 rmoveto
          -92 -79 -68 -101 hvcurveto
          -463 32 172 140 28 -140 22 callgsubr
          endchar
        </CharString>
        <CharString name="f_f">
          19 21 -36 callsubr
          14 callgsubr
          200 32 vstem
          463 632 rmoveto
          -85 callgsubr
          140 28 -140 22 callgsubr
          endchar
        </CharString>
        <CharString name="f_f_i">
          177 21 -36 callsubr
          -28 43 -33 callgsubr
          200 32 200 58 -45 32 hintmask 11101101
          569 449 rmoveto
          -32 -249 -213 263 hlineto
          82 63 59 76 vhcurveto
          28 vlineto
          -85 callgsubr
          213 -172 32 vlineto
          hintmask 11011110
          -45 620 rmoveto
          -92 callsubr
          19 10 -26 callsubr
          -10 9 -19 -19 -10 -9 -18 vhcurveto
          endchar
        </CharString>
        <CharString name="f_f_l">
          270 -9 28 2 -36 callsubr
          -1 -42 callsubr
          200 32 217 32 hintmask 10101111
          712 19 -71 callsubr
          471 -32 -431 -217 263 vlineto
          hintmask 01110111
          82 63 59 76 vhcurveto
          28 vlineto
          -85 callgsubr
          217 -12 vlineto
          hintmask 10110111
          -101 79 -68 92 vhcurveto
          endchar
        </CharString>
        <CharString name="fi">
          -55 21 -21 172 28 390 54 -40 28 -33 callgsubr
          200 58 -45 32 hintmask 11011010
          337 449 rmoveto
          -32 -249 -213 263 hlineto
          -66 callgsubr
          -463 32 172 213 -172 32 vlineto
          hintmask 11101100
          -45 617 rmoveto
          -92 callsubr
          19 10 -26 callsubr
          -10 9 -19 -19 -10 -9 -18 vhcurveto
          endchar
        </CharString>
        <CharString name="five">
          184 -10 28 511 28 164 29 hstem
          572 32 vstem
          111 -84 callgsubr
          -35 -334 rlineto
          35 hlineto
          68 47 77 45 84 hhcurveto
          140 113 -117 -139 -141 -113 -114 -140 -112 -99 79 105 -32 hvcurveto
          -31 hlineto
          -123 29 119 -89 126 hhcurveto
          157 128 125 158 155 -125 129 -160 -80 -78 -32 -61 -48 hvcurveto
          27 257 rlineto
          381 29 hlineto
          endchar
        </CharString>
        <CharString name="fl">
          18 -9 28 2 -36 callsubr
          1 -42 callsubr
          200 32 hintmask 10101110
          463 19 -71 callsubr
          473 -32 -433 -200 263 vlineto
          hintmask 01110110
          -66 callgsubr
          -463 32 172 200 -12 vlineto
          hintmask 10110110
          -101 79 -68 92 vhcurveto
          endchar
        </CharString>
        <CharString name="florin">
          -103 -198 28 592 28 271 28 hstem
          165 33 vstem
          25 -31 callgsubr
          451 107 28 -108 130 vlineto
          83 63 58 77 vhcurveto
          28 vlineto
          -94 -78 -68 -101 hvcurveto
          -130 -99 -28 99 -451 vlineto
          -83 -63 -58 -77 vhcurveto
          endchar
        </CharString>
        <CharString name="four">
          25 21 -21 91 33 636 -20 hstem
          355 33 vstem
          355 hmoveto
          33 91 87 33 -87 636 hlineto
          -371 -669 rlineto
          338 hlineto
          -289 33 rmoveto
          289 521 rlineto
          -521 vlineto
          endchar
        </CharString>
        <CharString name="franc">
          -98 21 -21 169 28 89 29 406 29 hstem
          75 33 vstem
          302 169 rmoveto
          28 -194 89 8 callsubr
          -267 -553 -51 -28 51 -169 33 169 vlineto
          endchar
        </CharString>
        <CharString name="g">
          -56 callgsubr
          hstemhm
          35 32 411 32 hintmask 11011100
          -11 callgsubr
          hintmask 11101100
          -96 callgsubr
          hintmask 11011100
          -77 callgsubr
          hintmask 11101100
          -85 callsubr
          endchar
        </CharString>
        <CharString name="gbreve">
          -56 callgsubr
          98 25 91 -8 callgsubr
          93 28 290 32 hintmask 1101111110000000
          -11 callgsubr
          hintmask 1110111110000000
          -96 callgsubr
          hintmask 1101111110000000
          -77 callgsubr
          hintmask 1110111110000000
          -85 callsubr
          11 537 -106 callsubr
          endchar
        </CharString>
        <CharString name="gcircumflex">
          105 -208 28 0 168 0 -87 callgsubr
          -10 -20 30 69 115 -8 callgsubr
          411 32 hintmask 1010111110000000
          -11 callgsubr
          hintmask 0101001110000000
          77 -37 -84 45 -84 hhcurveto
          -131 -107 -107 -129 -129 107 -107 131 80 88 45 76 37 hvcurveto
          -67 vlineto
          -140 -85 -82 -115 -78 -82 48 64 -35 vhcurveto
          -46 vlineto
          hintmask 1010111110000000
          -56 40 79 -38 76 hhcurveto
          137 95 93 157 hvcurveto
          -77 callgsubr
          hintmask 1011001110000000
          -85 callsubr
          28 628 rmoveto
          -30 hlineto
          hintmask 1010111110000000
          -134 -115 rlineto
          42 hlineto
          106 91 107 -91 rlineto
          41 hlineto
          endchar
        </CharString>
        <CharString name="gdotaccent">
          -56 callgsubr
          129 54 hstemhm
          35 32 189 58 164 32 hintmask 11011111
          -11 callgsubr
          hintmask 11101111
          -96 callgsubr
          hintmask 11011111
          -77 callgsubr
          hintmask 11101111
          -85 callsubr
          -17 570 rmoveto
          -92 callsubr
          19 10 -26 callsubr
          -10 9 -19 -19 -10 -9 -18 vhcurveto
          endchar
        </CharString>
        <CharString name="germandbls">
          107 -10 29 2 -21 427 29 222 29 hstemhm
          75 32 220 32 143 30 hintmask 01111110
          359 567 rmoveto
          77 -64 63 -78 -79 -63 -63 -77 vhcurveto
          -567 32 567 vlineto
          60 51 51 59 59 51 -51 -60 -59 -51 -52 -60 vhcurveto
          -29 81 vlineto
          111 94 -91 -113 hvcurveto
          hintmask 10111110
          -111 -94 -93 -111 -31 -33 8 17 -31 vhcurveto
          -34 vlineto
          -13 31 31 -7 33 hhcurveto
          130 105 106 127 127 -102 101 -127 5 hvcurveto
          32 27 24 39 45 vvcurveto
          endchar
        </CharString>
        <CharString name="grave">
          -254 -3 callgsubr
          15 644 rmoveto
          139 -115 rlineto
          42 hlineto
          -140 -54 callsubr
        </CharString>
        <CharString name="greater">
          -57 250 -21 397 -70 callgsubr
          626 -28 callsubr
          29 vlineto
          endchar
        </CharString>
        <CharString name="greaterequal">
          -2 157 31 476 -70 callgsubr
          664 -28 callsubr
          30 vlineto
          -2 -325 -35 callsubr
          endchar
        </CharString>
        <CharString name="guillemotleft">
          18 10 callsubr
          70 240 -65 callgsubr
          -43 -193 -65 callgsubr
          endchar
        </CharString>
        <CharString name="guillemotright">
          18 10 callsubr
          195 433 -65 callsubr
          -393 193 -65 callsubr
          endchar
        </CharString>
        <CharString name="guilsinglleft">
          -152 10 callsubr
          75 240 -65 callgsubr
          endchar
        </CharString>
        <CharString name="guilsinglright">
          -152 10 callsubr
          20 433 -65 callsubr
          endchar
        </CharString>
        <CharString name="h">
          49 21 -77 callsubr
          288 -20 hstem
          60 0 callgsubr
          vstem
          92 -81 callgsubr
          386 -32 -749 vlineto
          endchar
        </CharString>
        <CharString name="hbar">
          62 21 -77 callsubr
          120 29 139 -20 hstem
          70 0 callgsubr
          vstem
          102 -81 callgsubr
          218 129 29 -129 139 -32 -139 -55 -29 55 -581 vlineto
          endchar
        </CharString>
        <CharString name="hcircumflex">
          49 21 -77 callsubr
          0 68 220 -47 callgsubr
          hintmask 11011100
          92 -81 callgsubr
          386 -32 -749 vlineto
          232 644 rmoveto
          -30 hlineto
          hintmask 10111100
          -134 -115 rlineto
          42 hlineto
          106 91 107 -91 rlineto
          41 hlineto
          endchar
        </CharString>
        <CharString name="hungarumlaut">
          -135 529 115 hstem
          155 644 -93 callgsubr
        </CharString>
        <CharString name="hyphen">
          -74 387 31 hstem
          351 387 -35 callsubr
          endchar
        </CharString>
        <CharString name="i">
          13 callgsubr
          559 54 hstemhm
          60 58 -45 32 hintmask 11010000
          -40 callgsubr
          hintmask 11100000
          -45 586 rmoveto
          -92 callsubr
          19 10 -26 callsubr
          -10 9 -19 -19 -10 -9 -18 vhcurveto
          endchar
        </CharString>
        <CharString name="iacute">
          -66 callsubr
          34 644 -71 callgsubr
          endchar
        </CharString>
        <CharString name="ibreve">
          13 callgsubr
          528 -30 callsubr
          -35 28 80 -52 callsubr
          -16 553 -106 callsubr
          endchar
        </CharString>
        <CharString name="icircumflex">
          -66 callsubr
          644 vmoveto
          -30 hlineto
          -134 -115 rlineto
          42 hlineto
          106 91 107 -91 rlineto
          41 hlineto
          endchar
        </CharString>
        <CharString name="idieresis">
          -267 21 -21 558 54 hstem
          18 58 7 32 10 55 vstem
          115 -78 callgsubr
          -97 585 rmoveto
          -92 callsubr
          19 10 -26 callsubr
          -10 9 -19 -19 -10 -9 -18 vhcurveto
          107 hmoveto
          -92 callsubr
          17 9 -26 callsubr
          -33 callsubr
          -19 -10 -9 -18 vhcurveto
          endchar
        </CharString>
        <CharString name="igrave">
          -66 callsubr
          -106 644 rmoveto
          139 -115 rlineto
          42 hlineto
          -140 -54 callsubr
        </CharString>
        <CharString name="imacron">
          13 callgsubr
          566 28 hstem
          73 -52 callsubr
          83 566 -67 callsubr
        </CharString>
        <CharString name="iogonek">
          -287 -15 callgsubr
          196 -21 559 54 hstemhm
          60 58 -45 32 hintmask 11101000
          106 hmoveto
          -1 449 -32 -449 5 hlineto
          -86 -123 -93 callsubr
          hintmask 11110000
          41 711 rmoveto
          -92 callsubr
          19 10 -26 callsubr
          -10 9 -19 -19 -10 -9 -18 vhcurveto
          endchar
        </CharString>
        <CharString name="itilde">
          13 callgsubr
          547 7 callsubr
          hstem
          73 -52 callsubr
          124 624 -105 callsubr
        </CharString>
        <CharString name="j">
          -223 9 callsubr
          124 58 -46 32 hintmask 11101000
          -32 callgsubr
          hintmask 11110000
          129 756 rmoveto
          -92 callsubr
          19 10 -26 callsubr
          -10 9 -19 -19 -10 -9 -18 vhcurveto
          endchar
        </CharString>
        <CharString name="jcircumflex">
          -223 -198 28 620 -20 214 -20 hstem
          136 32 vstem
          -32 callgsubr
          169 814 rmoveto
          -30 hlineto
          -134 -115 rlineto
          42 hlineto
          106 91 107 -91 rlineto
          41 hlineto
          endchar
        </CharString>
        <CharString name="k">
          -77 5 callgsubr
          318 -20 14 callgsubr
          vstem
          60 748 rmoveto
          -748 -88 callsubr
          454 vlineto
          endchar
        </CharString>
        <CharString name="l">
          -214 -9 28 731 -20 14 callgsubr
          vstem
          -87 callsubr
          endchar
        </CharString>
        <CharString name="lacute">
          -214 -9 28 731 -20 210 -20 14 callgsubr
          vstem
          -87 callsubr
          -73 949 -71 callgsubr
          endchar
        </CharString>
        <CharString name="lcaron">
          -200 -9 28 731 -42 callsubr
          0 89 hintmask 11100000
          -87 callsubr
          -19 641 -99 callgsubr
          20 -15 11 -21 vhcurveto
          hintmask 11010000
          -22 -11 -10 -21 -76 callsubr
          hvcurveto
          endchar
        </CharString>
        <CharString name="ldot">
          -176 -9 28 242 62 427 -20 14 callgsubr
          90 62 vstem
          -87 callsubr
          -49 301 -61 callgsubr
        </CharString>
        <CharString name="less">
          -57 250 -21 397 -70 callgsubr
          444 -34 callsubr
          endchar
        </CharString>
        <CharString name="lessequal">
          -2 157 31 476 -70 callgsubr
          482 -34 callsubr
          -507 vmoveto
          31 -311 -31 vlineto
          endchar
        </CharString>
        <CharString name="lira">
          64 -2 31 -8 -21 71 30 67 29 87 23 callgsubr
          hintmask 01111110
          388 168 rmoveto
          29 -210 87 210 28 -211 -60 callsubr
          -87 -92 -29 92 -67 -28 callgsubr
          hintmask 10111110
          78 57 -73 79 hhcurveto
          39 39 32 64 39 hvcurveto
          -36 hlineto
          -58 callsubr
          67 vlineto
          endchar
        </CharString>
        <CharString name="logicalnot">
          -55 209 -21 94 31 hstem
          329 31 vstem
          329 188 rmoveto
          31 125 -310 -31 279 hlineto
          endchar
        </CharString>
        <CharString name="lslash">
          -183 -9 28 731 -20 hstem
          89 32 vstem
          260 19 -71 callsubr
          134 vlineto
          127 127 -20 20 -107 -107 rlineto
          416 -32 -448 vlineto
          -81 -81 20 -20 61 61 rlineto
          -102 vlineto
          -101 79 -68 92 vhcurveto
          endchar
        </CharString>
        <CharString name="m">
          281 21 -77 callsubr
          -11 -42 callsubr
          264 32 266 32 hintmask 11011100
          525 461 rmoveto
          -71 -62 -42 -64 -20 hvcurveto
          60 -23 -55 46 -68 hhcurveto
          -48 -60 -35 -39 -26 hvcurveto
          hintmask 10111100
          63 -37 callsubr
          hintmask 11011100
          71 62 62 72 73 57 -62 -71 vhcurveto
          -300 32 300 vlineto
          71 65 62 72 69 60 -56 -79 vhcurveto
          -298 32 298 vlineto
          102 -71 61 -90 vhcurveto
          endchar
        </CharString>
        <CharString name="macron">
          -124 566 28 hstem
          272 566 -67 callsubr
        </CharString>
        <CharString name="mu">
          90 15 callgsubr
          189 -45 callsubr
          hstemhm
          75 32 341 32 hintmask 11011100
          75 -200 rmoveto
          32 282 hlineto
          -56 35 63 -37 72 hhcurveto
          69 67 40 58 35 hvcurveto
          hintmask 10111100
          -87 32 450 -32 -262 vlineto
          hintmask 11011100
          -92 -78 -79 -93 -91 -78 79 92 vhcurveto
          262 -33 vlineto
          endchar
        </CharString>
        <CharString name="multiply">
          -72 305 -21 242 -20 hstem
          174 405 rmoveto
          -95 -95 24 -23 94 94 98 -97 22 22 -98 97 99 99 -24 23 -98 -98 -99 99 -22 -22 rlineto
          endchar
        </CharString>
        <CharString name="n">
          59 21 -77 callsubr
          -11 -47 callgsubr
          hintmask 11011000
          92 -96 callsubr
          hintmask 10111000
          -19 callsubr
          endchar
        </CharString>
        <CharString name="nacute">
          59 21 -77 callsubr
          -11 -20 214 -47 callgsubr
          hintmask 11011100
          92 -96 callsubr
          hintmask 10111100
          -19 callsubr
          251 644 -71 callgsubr
          endchar
        </CharString>
        <CharString name="napostrophe">
          59 21 -77 callsubr
          -28 214 -197 -47 callgsubr
          hintmask 11001100
          92 -96 callsubr
          hintmask 10011100
          -19 callsubr
          30 529 -99 callgsubr
          hintmask 10101100
          20 -15 11 -21 -22 -11 -10 -21 -76 callsubr
          vhcurveto
          endchar
        </CharString>
        <CharString name="ncaron">
          59 21 -77 callsubr
          -28 211 -194 -47 callgsubr
          hintmask 11001100
          92 -96 callsubr
          hintmask 10011100
          -19 callsubr
          hintmask 10101100
          350 644 rmoveto
          -41 hlineto
          -107 -91 -106 91 rlineto
          -42 hlineto
          134 -115 rlineto
          30 hlineto
          endchar
        </CharString>
        <CharString name="nine">
          166 21 -21 195 28 511 28 hstem
          28 36 501 31 vstem
          238 hmoveto
          38 hlineto
          219 251 rlineto
          76 87 25 76 67 vvcurveto
          154 -125 127 -157 -157 -129 -127 -154 -157 130 -129 147 48 60 14 18 23 vhcurveto
          -122 507 rmoveto
          138 113 -114 -139 -141 -117 -117 -135 -136 -113 117 140 140 111 114 139 hvcurveto
          endchar
        </CharString>
        <CharString name="notequal">
          -4 255 -21 99 29 99 31 98 -20 hstem
          345 590 rmoveto
          -73 -98 rlineto
          -197 -31 174 hlineto
          -74 -99 rlineto
          -100 -29 78 hlineto
          -73 -99 -15 callsubr
          74 99 rlineto
          195 29 -173 hlineto
          74 99 rlineto
          99 31 -76 hlineto
          74 98 rlineto
          endchar
        </CharString>
        <CharString name="ntilde">
          79 21 -77 callsubr
          -11 -20 117 7 callsubr
          hstemhm
          70 0 callgsubr
          hintmask 11011110
          102 -96 callsubr
          hintmask 10111110
          -19 callsubr
          341 624 -105 callsubr
        </CharString>
        <CharString name="numbersign">
          207 21 -21 281 31 153 31 252 -20 hstem
          15 496 rmoveto
          -31 242 vlineto
          -67 -153 rlineto
          -175 -31 161 hlineto
          -123 -281 rlineto
          31 hlineto
          124 281 rlineto
          186 hlineto
          -124 -281 rlineto
          32 hlineto
          124 281 rlineto
          231 31 -218 hlineto
          68 153 rlineto
          150 31 -136 -7 callsubr
          -185 -7 callsubr
          20 -31 rmoveto
          185 hlineto
          -68 -153 rlineto
          -185 hlineto
          endchar
        </CharString>
        <CharString name="o">
          11 callsubr
          hstem
          35 12 callsubr
          vstem
          35 225 rmoveto
          -123 105 -113 129 vhcurveto
          9 hlineto
          132 101 -51 callsubr
          129 -105 107 -133 -97 callgsubr
          hvcurveto
          238 208 rmoveto
          115 91 -10 callsubr
          -91 -95 -115 -91 callgsubr
          hvcurveto
          endchar
        </CharString>
        <CharString name="oacute">
          101 -43 callgsubr
          183 -20 hstem
          45 12 callsubr
          vstem
          45 225 rmoveto
          -123 105 -113 129 vhcurveto
          9 hlineto
          132 101 -51 callsubr
          129 -105 107 -133 -97 callgsubr
          hvcurveto
          238 208 rmoveto
          115 91 -10 callsubr
          -91 -95 -115 -91 callgsubr
          hvcurveto
          49 211 -71 callgsubr
          endchar
        </CharString>
        <CharString name="obreve">
          11 callsubr
          67 -30 callsubr
          35 32 81 28 303 32 vstem
          35 225 rmoveto
          -123 105 -113 129 vhcurveto
          9 hlineto
          132 101 -51 callsubr
          129 -105 107 -133 -97 callgsubr
          hvcurveto
          238 208 rmoveto
          115 91 -10 callsubr
          -91 -95 -115 -91 callgsubr
          hvcurveto
          -1 120 -106 callsubr
          endchar
        </CharString>
        <CharString name="ocircumflex">
          101 -43 callgsubr
          0 68 -16 callgsubr
          45 12 callsubr
          hintmask 11011100
          45 225 rmoveto
          -123 105 -113 129 vhcurveto
          9 hlineto
          132 101 -51 callsubr
          129 -105 107 -133 -97 callgsubr
          hvcurveto
          238 208 rmoveto
          115 91 -10 callsubr
          -91 -95 -115 -91 callgsubr
          hvcurveto
          16 211 rmoveto
          -30 hlineto
          hintmask 10111100
          -134 -115 rlineto
          42 hlineto
          106 91 107 -91 rlineto
          41 hlineto
          endchar
        </CharString>
        <CharString name="odieresis">
          101 -43 callgsubr
          97 54 hstem
          45 32 125 -14 callgsubr
          125 32 vstem
          45 225 rmoveto
          -123 105 -113 129 vhcurveto
          9 hlineto
          132 101 -51 callsubr
          129 -105 107 -133 -97 callgsubr
          hvcurveto
          238 208 rmoveto
          115 91 -10 callsubr
          -91 -95 -115 -91 callgsubr
          hvcurveto
          -81 152 rmoveto
          -92 callsubr
          19 10 -26 callsubr
          -10 9 -19 -19 -10 -9 -18 vhcurveto
          107 hmoveto
          -92 callsubr
          17 9 -26 callsubr
          -33 callsubr
          -19 -10 -9 -18 vhcurveto
          endchar
        </CharString>
        <CharString name="oe">
          355 -11 30 -7 -21 442 30 -2 -20 hstemhm
          55 12 callsubr
          hintmask 10101100
          300 -11 rmoveto
          57 52 22 36 40 hvcurveto
          hintmask 01101100
          -35 40 50 -21 56 hhcurveto
          15 -3 callsubr
          51 vlineto
          hintmask 10101100
          -61 -41 -67 -40 -71 hhcurveto
          -45 -47 20 31 -39 hvcurveto
          313 311 rlineto
          52 -47 -63 30 -72 hhcurveto
          -60 -52 -22 -36 -43 hvcurveto
          hintmask 10011100
          35 -43 -52 21 -60 hhcurveto
          -69 callsubr
          104 -113 126 hvcurveto
          hintmask 10101100
          8 444 rmoveto
          115 91 -10 callsubr
          -91 -95 -115 -91 callgsubr
          hvcurveto
          310 2 rmoveto
          51 50 -22 -32 37 hvcurveto
          -219 -220 rlineto
          6 20 3 21 23 vvcurveto
          60 -23 55 -39 43 vhcurveto
          32 36 47 20 51 hhcurveto
          endchar
        </CharString>
        <CharString name="ogonek">
          -320 -15 callgsubr
          175 -20 hstem
          129 hmoveto
          -28 hlineto
          -86 -123 -93 callsubr
          endchar
        </CharString>
        <CharString name="ograve">
          101 -43 callgsubr
          183 -20 hstem
          45 12 callsubr
          vstem
          45 225 rmoveto
          -123 105 -113 129 vhcurveto
          9 hlineto
          132 101 -51 callsubr
          129 -105 107 -133 -97 callgsubr
          hvcurveto
          238 208 rmoveto
          115 91 -10 callsubr
          -91 -95 -115 -91 callgsubr
          hvcurveto
          -91 211 rmoveto
          139 -115 rlineto
          42 hlineto
          -140 -54 callsubr
        </CharString>
        <CharString name="ohungarumlaut">
          11 callsubr
          68 115 hstem
          35 12 callsubr
          vstem
          35 225 rmoveto
          -123 105 -113 129 vhcurveto
          9 hlineto
          132 101 -51 callsubr
          129 -105 107 -133 -97 callgsubr
          hvcurveto
          238 208 rmoveto
          115 91 -10 callsubr
          -91 -95 -115 -91 callgsubr
          hvcurveto
          -12 211 -93 callgsubr
        </CharString>
        <CharString name="omacron">
          11 callsubr
          105 28 hstem
          35 12 callsubr
          vstem
          35 225 rmoveto
          -123 105 -113 129 vhcurveto
          9 hlineto
          132 101 -51 callsubr
          129 -105 107 -133 -97 callgsubr
          hvcurveto
          238 208 rmoveto
          115 91 -10 callsubr
          -91 -95 -115 -91 callgsubr
          hvcurveto
          98 133 -67 callsubr
        </CharString>
        <CharString name="one">
          -224 21 -21 719 29 hstem
          133 33 vstem
          133 hmoveto
          33 748 -151 -29 118 hlineto
          endchar
        </CharString>
        <CharString name="oslash">
          91 -13 callgsubr
          32 hintmask 10011100
          428 -78 callsubr
          -20 -27 rlineto
          hintmask 01101100
          -49 callgsubr
          hintmask 10011100
          -42 callgsubr
          hintmask 10101100
          -79 callgsubr
          endchar
        </CharString>
        <CharString name="oslashacute">
          81 -11 -83 callgsubr
          -11 -20 214 -20 hstemhm
          40 12 callsubr
          hintmask 10011110
          428 -78 callsubr
          -20 -27 rlineto
          hintmask 01101110
          -49 callgsubr
          hintmask 10011110
          -42 callgsubr
          hintmask 10101110
          -79 callgsubr
          -162 419 -71 callgsubr
          endchar
        </CharString>
        <CharString name="otilde">
          101 -43 callgsubr
          86 7 callsubr
          hstem
          45 12 callsubr
          vstem
          45 225 rmoveto
          -123 105 -113 129 vhcurveto
          9 hlineto
          132 101 -51 callsubr
          129 -105 107 -133 -97 callgsubr
          hvcurveto
          238 208 rmoveto
          115 91 -10 callsubr
          -91 -95 -115 -91 callgsubr
          hvcurveto
          139 191 -105 callsubr
        </CharString>
        <CharString name="p">
          104 -5 callsubr
          60 32 410 32 hintmask 11101100
          60 -200 rmoveto
          32 309 hlineto
          -76 41 85 -44 78 hhcurveto
          133 105 107 129 129 -105 107 -133 -80 -87 -46 -75 -37 hvcurveto
          hintmask 11011100
          110 -32 vlineto
          236 -433 -25 callgsubr
          111 95 97 111 115 91 -10 callsubr
          -91 -95 -115 vhcurveto
          endchar
        </CharString>
        <CharString name="paragraph">
          99 15 callgsubr
          655 -20 286 29 hstemhm
          75 196 142 31 vstemhm
          271 -200 rmoveto
          921 142 -921 31 921 90 29 -311 vlineto
          -83 -65 -67 -80 -80 62 -68 83 hvcurveto
          hintmask 11111000
          20 -655 hlineto
          endchar
        </CharString>
        <CharString name="parenleft">
          -132 -66 -21 905 -20 hstem
          85 33 vstem
          308 -48 rmoveto
          -117 105 -73 145 163 vvcurveto
          167 73 143 117 107 vhcurveto
          36 vlineto
          -135 -111 -88 -162 -180 vvcurveto
          -173 88 -165 135 -114 vhcurveto
          endchar
        </CharString>
        <CharString name="parenright">
          -131 -65 -21 897 -20 hstem
          216 33 vstem
          25 809 rmoveto
          -30 vlineto
          119 -105 72 -146 -164 vvcurveto
          -161 -72 -146 -119 -105 vhcurveto
          -38 vlineto
          137 113 87 164 173 vvcurveto
          181 -84 158 -136 108 vhcurveto
          endchar
        </CharString>
        <CharString name="percent">
          227 -11 29 3 -57 callsubr
          120 29 268 29 -11 -20 hstemhm
          20 16 callsubr
          hintmask 1011101011000000
          511 -11 -94 callgsubr
          -319 149 rmoveto
          hintmask 1011101101000000
          -64 callgsubr
          hintmask 0111011101000000
          408 18 rmoveto
          -557 -750 -15 callsubr
          559 750 rlineto
          endchar
        </CharString>
        <CharString name="period">
          -326 -7 62 hstem
          35 69 vstem
          35 24 rmoveto
          -27 callsubr
        </CharString>
        <CharString name="periodcentered">
          -253 261 62 hstem
          75 62 vstem
          75 292 -61 callgsubr
        </CharString>
        <CharString name="perthousand">
          690 -11 29 3 -57 callsubr
          120 29 268 29 hstemhm
          55 16 callsubr
          69 32 265 32 hintmask 1011110111100000
          546 -11 -94 callgsubr
          -319 149 rmoveto
          hintmask 1011111011100000
          -64 callgsubr
          725 -743 -94 callgsubr
          -307 462 rmoveto
          hintmask 0111111011100000
          -12 callgsubr
        </CharString>
        <CharString name="plus">
          -124 274 -21 134 31 139 -20 hstem
          155 33 vstem
          155 -37 callgsubr
          endchar
        </CharString>
        <CharString name="plusminus">
          -14 168 31 188 31 139 -20 hstem
          210 33 vstem
          210 -37 callgsubr
          311 -219 -35 callsubr
          endchar
        </CharString>
        <CharString name="q">
          104 -5 callsubr
          35 32 410 32 hintmask 11011100
          15 callsubr
          hintmask 11101100
          -100 callgsubr
          -312 32 vlineto
          hintmask 11011100
          -236 217 -25 callgsubr
          111 95 97 111 115 91 -10 callsubr
          -91 -95 -115 vhcurveto
          endchar
        </CharString>
        <CharString name="question">
          181 -7 62 206 29 443 29 hstemhm
          45 34 195 69 -53 32 207 32 hintmask 11110110
          79 511 rmoveto
          3 68 21 53 39 39 rrcurveto
          44 44 54 18 64 hhcurveto
          63 53 -21 -41 42 hvcurveto
          45 -43 22 -49 -67 vvcurveto
          -64 -21 -48 -44 -47 vhcurveto
          -47 -45 -51 -16 -64 hhcurveto
          -14 -194 32 165 hlineto
          64 4 60 27 44 43 rrcurveto
          41 51 30 65 61 vvcurveto
          69 -25 60 -50 50 vhcurveto
          51 -52 -59 20 -71 hhcurveto
          -73 -60 -20 -51 -51 hvcurveto
          -47 -47 -24 -62 -4 -71 rrcurveto
          hintmask 11111010
          229 -487 rmoveto
          -27 callsubr
        </CharString>
        <CharString name="questiondown">
          161 -7 29 443 29 206 62 hstemhm
          55 32 186 69 -48 32 211 34 hintmask 11110110
          537 244 rmoveto
          -3 -68 -21 -53 -39 -39 rrcurveto
          -44 -44 -54 -18 -64 hhcurveto
          -63 -53 21 41 -42 hvcurveto
          -45 43 -22 49 67 vvcurveto
          64 21 48 44 47 vhcurveto
          47 45 51 16 64 hhcurveto
          14 194 -32 -165 hlineto
          -64 -4 -60 -27 -44 -43 rrcurveto
          -41 -51 -30 -65 -61 vvcurveto
          -69 25 -60 50 -50 vhcurveto
          -51 52 59 -20 71 hhcurveto
          73 60 20 51 51 hvcurveto
          47 47 24 62 4 71 rrcurveto
          hintmask 11111010
          -229 487 rmoveto
          21 -11 10 -22 -21 -15 -11 -20 -20 15 -11 21 22 11 10 -41 callgsubr
        </CharString>
        <CharString name="quotedbl">
          -190 631 179 hstem
          70 33 69 33 vstem
          70 631 rmoveto
          33 179 -33 hlineto
          102 -179 rmoveto
          33 179 -33 hlineto
          endchar
        </CharString>
        <CharString name="quotedblbase">
          -136 15 callgsubr
          230 -20 hstem
          79 36 88 36 vstem
          144 -200 -48 callgsubr
          103 -36 -103 -49 callsubr
          -124 -35 -48 callgsubr
          103 -36 -103 -49 callsubr
          endchar
        </CharString>
        <CharString name="quotedblleft">
          -121 588 -21 245 -20 hstem
          100 36 88 36 vstem
          195 812 -61 callsubr
          124 35 -61 callsubr
          endchar
        </CharString>
        <CharString name="quotedblright">
          -121 588 -21 243 -20 hstem
          84 36 88 36 vstem
          149 567 -48 callgsubr
          116 -36 -116 -49 callsubr
          -124 -35 -48 callgsubr
          116 -36 -116 -49 callsubr
          endchar
        </CharString>
        <CharString name="quoteleft">
          -245 588 -21 245 -20 hstem
          100 36 vstem
          195 812 -61 callsubr
          endchar
        </CharString>
        <CharString name="quoteright">
          -245 589 -21 242 -20 hstem
          84 36 vstem
          25 568 -48 callgsubr
          115 -36 -115 -49 callsubr
          endchar
        </CharString>
        <CharString name="quotesinglbase">
          -260 -178 -21 231 -20 hstem
          79 36 vstem
          20 -199 -48 callgsubr
          104 -36 -104 -49 callsubr
          endchar
        </CharString>
        <CharString name="quotesingle">
          -282 653 -21 178 -39 callsubr
          75 632 rmoveto
          33 178 -33 hlineto
          endchar
        </CharString>
        <CharString name="r">
          -117 21 -77 callsubr
          -11 -42 callsubr
          hintmask 11010000
          -73 callgsubr
          hintmask 10110000
          67 -37 callsubr
          hintmask 11010000
          -46 callsubr
          endchar
        </CharString>
        <CharString name="racute">
          -117 21 -77 callsubr
          -11 -20 214 -42 callsubr
          hintmask 11011000
          -73 callgsubr
          hintmask 10111000
          67 -37 callsubr
          hintmask 11011000
          -46 callsubr
          -72 255 -71 callgsubr
          endchar
        </CharString>
        <CharString name="rcaron">
          -117 21 -77 callsubr
          -28 211 -194 -42 callsubr
          hintmask 11001000
          -73 callgsubr
          hintmask 10011000
          67 -37 callsubr
          hintmask 10101000
          -46 callsubr
          23 255 rmoveto
          -41 hlineto
          -107 -91 -106 91 rlineto
          -42 hlineto
          134 -115 rlineto
          30 hlineto
          endchar
        </CharString>
        <CharString name="registered">
          425 -13 29 138 182 -27 27 241 27 130 29 hstemhm
          55 33 249 31 187 29 218 33 hintmask 1101111110000000
          452 -95 callgsubr
          28 -422 rmoveto
          65 16 46 58 71 vvcurveto
          80 -67 67 -81 vhcurveto
          -99 -450 31 hlineto
          hintmask 1011111110000000
          155 70 vlineto
          hintmask 1101111110000000
          110 -155 rlineto
          41 hlineto
          -221 423 rmoveto
          70 hlineto
          62 55 -57 -63 -64 -55 -57 -62 hvcurveto
          -70 hlineto
          endchar
        </CharString>
        <CharString name="ring">
          -284 512 24 102 24 hstem
          15 25 100 26 vstem
          92 512 -98 callgsubr
        </CharString>
        <CharString name="s">
          -121 -11 -9 callsubr
          14 callgsubr
          185 32 vstem
          239 -103 callsubr
          endchar
        </CharString>
        <CharString name="sacute">
          -121 -11 -9 callsubr
          182 -20 14 callgsubr
          185 32 vstem
          239 -103 callsubr
          -18 258 -71 callgsubr
          endchar
        </CharString>
        <CharString name="scaron">
          -101 -11 -9 callsubr
          182 -20 hstem
          70 32 185 32 vstem
          249 -103 callsubr
          81 258 rmoveto
          -41 hlineto
          -107 -91 -106 91 rlineto
          -42 hlineto
          134 -115 rlineto
          30 hlineto
          endchar
        </CharString>
        <CharString name="scedilla">
          -121 -15 callgsubr
          100 26 38 -9 callsubr
          -33 callgsubr
          38 112 -24 24 35 32 hintmask 11111101
          130 12 callgsubr
          hintmask 11111011
          -52 callgsubr
          hintmask 11111101
          -82 callsubr
          38 2 hlineto
          84 68 63 79 hvcurveto
          143 -217 10 91 vvcurveto
          35 33 24 33 27 33 -16 -32 21 vhcurveto
          41 vlineto
          21 -19 -30 14 -33 hhcurveto
          -51 -46 -34 -54 hvcurveto
          -117 217 -10 -120 vvcurveto
          -61 -54 -49 -69 -45 -48 20 64 -29 vhcurveto
          -48 vlineto
          17 -33 38 -22 43 -7 rrcurveto
          endchar
        </CharString>
        <CharString name="scircumflex">
          -121 -11 -9 callsubr
          0 67 115 -42 callsubr
          185 32 hintmask 11011100
          239 -103 callsubr
          -51 258 rmoveto
          -30 hlineto
          hintmask 10111100
          -134 -115 rlineto
          42 hlineto
          106 91 107 -91 rlineto
          41 hlineto
          endchar
        </CharString>
        <CharString name="section">
          -39 -8 29 478 27 201 28 hstem
          50 35 20 32 151 33 20 35 vstem
          50 375 rmoveto
          -87 70 -39 45 -24 vhcurveto
          26 -14 rlineto
          31 -16 66 -34 -55 vvcurveto
          -52 -42 -33 -51 -24 -35 12 51 -31 vhcurveto
          -55 vlineto
          -25 25 30 -12 35 hhcurveto
          69 57 48 67 56 -43 30 -47 29 hvcurveto
          80 8 65 65 80 vvcurveto
          88 -71 37 -44 25 vhcurveto
          -28 15 rlineto
          -32 19 -64 31 52 vvcurveto
          49 38 36 52 23 33 -12 -48 31 vhcurveto
          53 vlineto
          23 -27 -27 12 -33 hhcurveto
          -68 -54 -49 -65 -56 42 -30 47 -29 hvcurveto
          -79 -5 -65 -66 -80 vvcurveto
          161 124 rmoveto
          67 63 -53 -71 -68 -57 -56 -69 -67 -63 51 73 68 57 56 69 hvcurveto
          endchar
        </CharString>
        <CharString name="semicolon">
          -226 -42 -21 77 -21 62 206 0 62 hstemhm
          85 69 hintmask 11011000
          85 292 rmoveto
          -92 callgsubr
          31 -355 -99 callgsubr
          hintmask 11101000
          20 -15 11 -21 -22 -11 -10 -21 -76 callsubr
          vhcurveto
          endchar
        </CharString>
        <CharString name="seven">
          70 21 -21 719 29 hstem
          20 748 rmoveto
          -29 443 vlineto
          -371 -719 -15 callsubr
          386 748 rlineto
          endchar
        </CharString>
        <CharString name="six">
          166 -12 28 511 28 195 -20 hstem
          33 31 501 36 vstem
          391 -84 callgsubr
          -38 hlineto
          -219 -251 rlineto
          -76 -87 -25 -76 -67 vvcurveto
          -155 125 -126 157 157 129 126 155 155 -131 131 -146 -48 -60 -14 -18 -23 vhcurveto
          122 -507 rmoveto
          -138 -113 114 139 141 117 117 135 136 113 -117 -140 -140 -111 -114 -139 hvcurveto
          endchar
        </CharString>
        <CharString name="slash">
          21 callgsubr
          582 748 rmoveto
          -12 callgsubr
        </CharString>
        <CharString name="space">
          -115 endchar
        </CharString>
        <CharString name="sterling">
          64 -2 31 -8 -21 71 30 183 23 callgsubr
          hintmask 01111100
          177 312 rmoveto
          -60 callsubr
          -183 -28 callgsubr
          hintmask 10111100
          78 57 -73 79 hhcurveto
          39 39 32 64 39 hvcurveto
          -36 hlineto
          -58 callsubr
          183 201 28 vlineto
          endchar
        </CharString>
        <CharString name="t">
          -224 -6 28 399 28 182 -20 hstem
          50 32 vstem
          221 -63 callgsubr
          182 -32 -468 vlineto
          -101 79 -68 92 vhcurveto
          endchar
        </CharString>
        <CharString name="tbar">
          -215 -6 28 399 28 75 26 81 -20 hstem
          61 32 vstem
          232 -63 callgsubr
          75 126 26 -126 81 -32 -81 -51 -26 51 -361 vlineto
          -101 79 -68 92 vhcurveto
          endchar
        </CharString>
        <CharString name="tcaron">
          -191 -6 28 399 28 -28 210 hstemhm
          50 32 78 60 hintmask 11011000
          221 -63 callgsubr
          vlineto
          hintmask 10111000
          182 -32 -468 vlineto
          -101 79 -68 92 vhcurveto
          -30 519 -101 callgsubr
        </CharString>
        <CharString name="thorn">
          124 15 callgsubr
          188 -87 callgsubr
          169 -43 callsubr
          410 32 vstem
          75 -200 rmoveto
          32 303 hlineto
          -72 44 80 -43 80 hhcurveto
          133 105 107 129 129 -105 107 -133 -79 -80 -43 -72 -45 hvcurveto
          284 -32 vlineto
          236 -197 rmoveto
          115 91 -95 -113 -113 -91 -95 -115 -86 callgsubr
          hvcurveto
          endchar
        </CharString>
        <CharString name="three">
          124 -10 28 715 28 hstem
          30 31 36 32 315 32 35 33 vstem
          284 -10 rmoveto
          72 67 29 44 45 hvcurveto
          45 44 31 64 71 vvcurveto
          89 -49 80 -72 43 vhcurveto
          32 35 21 47 49 vvcurveto
          99 -84 77 -102 -108 -82 -84 -102 -3 vhcurveto
          32 hlineto
          87 3 73 71 85 hhcurveto
          85 69 -70 -81 -45 -20 -47 -35 -27 hvcurveto
          -18 -14 19 -8 rlineto
          75 -32 46 -91 -81 vvcurveto
          -123 -103 -96 -124 -123 -100 97 121 vhcurveto
          16 -31 -21 vlineto
          -133 118 -108 136 vhcurveto
          endchar
        </CharString>
        <CharString name="tilde">
          -94 547 28 -6 -21 54 26 hstemhm
          hintmask 10100000
          325 624 rmoveto
          -33 -21 -19 -16 -18 -56 -33 53 -59 hhcurveto
          -9 hlineto
          hintmask 01100000
          -36 -34 -29 -51 -25 hvcurveto
          31 hlineto
          20 33 22 20 23 1 rrcurveto
          hintmask 10100000
          54 44 -55 57 hhcurveto
          29 30 26 51 31 hvcurveto
          endchar
        </CharString>
        <CharString name="trademark">
          204 478 -21 267 26 hstem
          139 30 174 28 232 31 vstem
          343 466 rmoveto
          28 212 hlineto
          115 -221 117 220 rlineto
          -211 31 284 -24 vlineto
          -121 -230 -119 230 rlineto
          -27 hlineto
          -70 hmoveto
          -238 -26 104 -257 30 257 104 hlineto
          endchar
        </CharString>
        <CharString name="two">
          172 0 33 429 -20 289 28 hstem
          30 31 495 33 vstem
          36 hmoveto
          550 33 -446 hlineto
          272 170 rlineto
          120 75 57 93 108 vvcurveto
          141 -97 139 -184 -149 -129 -124 -173 vhcurveto
          31 hlineto
          149 111 120 136 163 85 -126 -125 -100 -51 -83 -120 -76 vhcurveto
          endchar
        </CharString>
        <CharString name="u">
          -56 callsubr
          hstemhm
          -38 callsubr
          hintmask 10111000
          422 -78 callsubr
          -262 vlineto
          -92 -83 -79 -91 -92 -74 79 92 vhcurveto
          262 -32 -262 vlineto
          -110 85 -89 113 72 66 30 72 36 vhcurveto
          hintmask 01111000
          -51 callgsubr
          endchar
        </CharString>
        <CharString name="uacute">
          59 -48 callsubr
          214 -47 callgsubr
          hintmask 10111100
          432 -78 callsubr
          -262 vlineto
          -92 -83 -79 -91 -92 -74 79 92 vhcurveto
          262 -32 -262 vlineto
          -110 85 -89 113 72 66 30 72 36 vhcurveto
          hintmask 01111100
          -51 callgsubr
          -153 194 -71 callgsubr
          endchar
        </CharString>
        <CharString name="ubreve">
          -56 callsubr
          98 -6 callgsubr
          hstemhm
          50 32 45 28 267 32 hintmask 10111111
          422 -78 callsubr
          -262 vlineto
          -92 -83 -79 -91 -92 -74 79 92 vhcurveto
          262 -32 -262 vlineto
          -110 85 -89 113 72 66 30 72 36 vhcurveto
          hintmask 01111111
          -51 callgsubr
          -203 103 -106 callsubr
          endchar
        </CharString>
        <CharString name="ucircumflex">
          59 -48 callsubr
          214 -47 callgsubr
          hintmask 10111100
          432 -78 callsubr
          -262 vlineto
          -92 -83 -79 -91 -92 -74 79 92 vhcurveto
          262 -32 -262 vlineto
          -110 85 -89 113 72 66 30 72 36 vhcurveto
          hintmask 01111100
          -51 callgsubr
          -186 194 rmoveto
          -30 hlineto
          -134 -115 rlineto
          42 hlineto
          106 91 107 -91 rlineto
          41 hlineto
          endchar
        </CharString>
        <CharString name="udieresis">
          59 -48 callsubr
          128 54 -33 callgsubr
          89 -14 callgsubr
          89 32 hintmask 10111111
          432 -78 callsubr
          -262 vlineto
          -92 -83 -79 -91 -92 -74 79 92 vhcurveto
          262 -32 -262 vlineto
          -110 85 -89 113 72 66 30 72 36 vhcurveto
          hintmask 01111111
          -51 callgsubr
          -283 135 rmoveto
          -92 callsubr
          19 10 -26 callsubr
          -10 9 -19 -19 -10 -9 -18 vhcurveto
          107 hmoveto
          -92 callsubr
          17 9 -26 callsubr
          -33 callsubr
          -19 -10 -9 -18 vhcurveto
          endchar
        </CharString>
        <CharString name="ugrave">
          59 -48 callsubr
          214 -47 callgsubr
          hintmask 10111100
          432 -78 callsubr
          -262 vlineto
          -92 -83 -79 -91 -92 -74 79 92 vhcurveto
          262 -32 -262 vlineto
          -110 85 -89 113 72 66 30 72 36 vhcurveto
          hintmask 01111100
          -51 callgsubr
          -293 194 rmoveto
          139 -115 rlineto
          42 hlineto
          -140 -54 callsubr
        </CharString>
        <CharString name="uhungarumlaut">
          -56 callsubr
          99 115 hstemhm
          -38 callsubr
          hintmask 10111100
          422 -78 callsubr
          -262 vlineto
          -92 -83 -79 -91 -92 -74 79 92 vhcurveto
          262 -32 -262 vlineto
          -110 85 -89 113 72 66 30 72 36 vhcurveto
          hintmask 01111100
          -51 callgsubr
          -214 194 -93 callgsubr
        </CharString>
        <CharString name="umacron">
          -56 callsubr
          136 28 hstemhm
          -38 callsubr
          hintmask 10111100
          422 -78 callsubr
          -262 vlineto
          -92 -83 -79 -91 -92 -74 79 92 vhcurveto
          262 -32 -262 vlineto
          -110 85 -89 113 72 66 30 72 36 vhcurveto
          hintmask 01111100
          -51 callgsubr
          -104 116 -67 callsubr
        </CharString>
        <CharString name="underscore">
          -107 0 31 hstem
          333 hmoveto
          31 -308 -31 vlineto
          endchar
        </CharString>
        <CharString name="uni00AD">
          -54 282 31 hstem
          361 282 -35 callsubr
          endchar
        </CharString>
        <CharString name="uni0122">
          228 -38 callgsubr
          66 0 29 268 29 421 29 hstemhm
          45 33 527 33 hintmask 10111110
          357 286 rmoveto
          248 -226 hlineto
          -23 -48 -66 -19 -56 -106 callgsubr
          73 69 20 35 56 hvcurveto
          271 -281 vlineto
          72 -510 -99 callgsubr
          hintmask 11011110
          20 -15 11 -21 -22 -11 -10 -21 -76 callsubr
          vhcurveto
          endchar
        </CharString>
        <CharString name="uni0123">
          -56 callgsubr
          273 -8 callgsubr
          170 36 205 32 hintmask 11011111
          332 703 rmoveto
          -56 -17 -39 -46 -64 vvcurveto
          -47 36 47 vlineto
          43 24 33 35 16 vhcurveto
          146 -218 rmoveto
          -112 vlineto
          hintmask 11101111
          -96 callgsubr
          hintmask 11011111
          -77 callgsubr
          hintmask 11101111
          -85 callsubr
          endchar
        </CharString>
        <CharString name="uni0136">
          107 -174 -21 216 -21 750 -20 hstem
          75 33 vstem
          75 750 -90 callgsubr
          175 -945 -101 callgsubr
        </CharString>
        <CharString name="uni0137">
          -77 -174 -21 216 -50 callsubr
          318 -20 14 callgsubr
          vstem
          60 748 rmoveto
          -748 -88 callsubr
          454 vlineto
          98 -943 -101 callgsubr
        </CharString>
        <CharString name="uni013B">
          -105 -38 callgsubr
          77 0 29 721 -6 callsubr
          33 hintmask 11011000
          108 -84 callgsubr
          20 callgsubr
          265 hlineto
          hintmask 10111000
          29 -232 vlineto
          68 -224 -99 callgsubr
          hintmask 11011000
          20 -15 11 -21 -22 -11 -10 -21 -76 callsubr
          vhcurveto
          endchar
        </CharString>
        <CharString name="uni013C">
          -214 -38 callgsubr
          68 0 28 731 -42 callsubr
          hintmask 11011000
          -87 callsubr
          hintmask 10111000
          -93 -186 -99 callgsubr
          hintmask 11011000
          20 -15 11 -21 -22 -11 -10 -21 -76 callsubr
          vhcurveto
          endchar
        </CharString>
        <CharString name="uni0145">
          266 -174 -21 216 -74 callsubr
          31 -36 callgsubr
          hintmask 11011100
          75 -53 callsubr
          552 -679 rlineto
          hintmask 11101100
          761 -29 -667 vlineto
          hintmask 11011100
          -265 -278 -101 callgsubr
        </CharString>
        <CharString name="uni0146">
          59 -13 callsubr
          340 32 hintmask 11101100
          92 -96 callsubr
          hintmask 11011100
          -19 callsubr
          198 -195 -101 callgsubr
        </CharString>
        <CharString name="uni0156">
          -58 -174 -21 216 -35 callgsubr
          -99 callsubr
          75 -496 -101 callgsubr
        </CharString>
        <CharString name="uni0157">
          -117 -13 callsubr
          hintmask 11101000
          -73 callgsubr
          hintmask 11011000
          67 -37 callsubr
          hintmask 11101000
          -46 callsubr
          -233 -584 -101 callgsubr
        </CharString>
        <CharString name="uni0162">
          -48 -174 -21 216 -1 callgsubr
          hstem
          193 33 vstem
          397 -69 callgsubr
          -192 -916 -101 callgsubr
        </CharString>
        <CharString name="uni0163">
          -224 -38 callgsubr
          71 0 28 399 28 182 -20 hstemhm
          50 32 hintmask 11011100
          221 -63 callgsubr
          182 -32 -468 vlineto
          -101 79 -68 92 vhcurveto
          hintmask 10111100
          -85 -189 -99 callgsubr
          hintmask 11011100
          20 -15 11 -21 -22 -11 -10 -21 -76 callsubr
          vhcurveto
          endchar
        </CharString>
        <CharString name="uni0218">
          33 -38 callgsubr
          63 0 -2 callsubr
          hstemhm
          75 33 319 31 hintmask 10111100
          377 -102 callsubr
          -145 -839 -99 callgsubr
          hintmask 11011100
          20 -15 11 -21 -22 -11 -10 -21 -76 callsubr
          vhcurveto
          endchar
        </CharString>
        <CharString name="uni0219">
          -121 -38 callgsubr
          66 0 -9 callsubr
          -33 callgsubr
          185 32 hintmask 10111100
          239 -103 callsubr
          -71 -581 -99 callgsubr
          hintmask 11011100
          20 -15 11 -21 -22 -11 -10 -21 -76 callsubr
          vhcurveto
          endchar
        </CharString>
        <CharString name="uni0401">
          -86 -62 callgsubr
          109 54 hstem
          75 33 19 -14 callgsubr
          -46 callgsubr
          19 165 rmoveto
          -92 callsubr
          19 10 -26 callsubr
          -10 9 -19 -19 -10 -9 -18 vhcurveto
          107 hmoveto
          -92 callsubr
          17 9 -26 callsubr
          -33 callsubr
          -19 -10 -9 -18 vhcurveto
          endchar
        </CharString>
        <CharString name="uni0402">
          198 -198 26 193 -7 callgsubr
          33 vstem
          431 -198 rmoveto
          93 80 66 103 hvcurveto
          291 vlineto
          112 -91 89 -113 -72 -62 -31 -61 -35 vhcurveto
          350 171 29 -377 -29 173 -721 33 269 vlineto
          90 80 76 89 93 78 -80 -93 -23 callsubr
          vlineto
          -84 -63 -59 -77 vhcurveto
          endchar
        </CharString>
        <CharString name="uni0403">
          -88 -18 callgsubr
          200 -39 callsubr
          342 721 rmoveto
          29 -267 -750 33 721 vlineto
          159 229 rmoveto
          -140 -139 rlineto
          42 hlineto
          139 139 rlineto
          endchar
        </CharString>
        <CharString name="uni0404">
          3 callgsubr
          50 33 vstem
          440 763 rmoveto
          -213 -177 -176 -212 -204 174 -184 208 hvcurveto
          15 hlineto
          73 -31 callsubr
          37 vlineto
          -41 -60 -70 -23 -73 hhcurveto
          -162 -142 122 148 -42 hvcurveto
          368 29 -374 hlineto
          -3 19 -2 22 19 vvcurveto
          197 161 162 196 73 70 -23 -41 60 vhcurveto
          36 vlineto
          36 -60 -67 21 -76 hhcurveto
          endchar
        </CharString>
        <CharString name="uni0405">
          74 -14 -60 callgsubr
          hstem
          85 33 338 33 vstem
          405 694 rmoveto
          43 -35 -52 25 -60 hhcurveto
          -81 -92 -52 -106 hvcurveto
          -209 371 24 -223 vvcurveto
          -116 -92 -65 -112 -91 -76 53 75 -35 vhcurveto
          -54 vlineto
          -61 43 70 -42 88 hhcurveto
          128 110 72 140 hvcurveto
          246 -371 -17 178 vvcurveto
          79 71 49 69 57 57 -34 -56 33 vhcurveto
          endchar
        </CharString>
        <CharString name="uni0406">
          -252 -44 callgsubr
          90 33 vstem
          123 hmoveto
          750 20 callgsubr
          vlineto
          endchar
        </CharString>
        <CharString name="uni0407">
          -276 -84 callsubr
          75 52 hstem
          15 52 10 33 12 52 vstem
          110 -84 callgsubr
          20 callgsubr
          33 hlineto
          -95 831 rmoveto
          -21 callgsubr
          107 hmoveto
          -21 callgsubr
          endchar
        </CharString>
        <CharString name="uni0408">
          7 -15 29 707 29 hstem
          364 33 vstem
          179 -88 callgsubr
          endchar
        </CharString>
        <CharString name="uni0409">
          333 0 30 398 30 263 29 hstem
          216 33 241 32 205 30 vstem
          490 hmoveto
          -22 callsubr
          292 -306 -509 hlineto
          -119 -83 -93 -108 vhcurveto
          -29 7 vlineto
          131 86 102 139 hvcurveto
          480 241 vlineto
          32 -691 rmoveto
          398 8 vlineto
          101 96 -91 -108 -107 -96 -92 -104 hvcurveto
          endchar
        </CharString>
        <CharString name="uni040A">
          250 0 30 397 31 292 -74 callgsubr
          337 32 205 30 vstem
          477 -84 callgsubr
          -32 -292 -337 292 20 callgsubr
          33 427 337 -427 -22 callsubr
          hlineto
          -428 vmoveto
          398 8 vlineto
          101 96 -91 -108 -107 -96 -92 -104 hvcurveto
          endchar
        </CharString>
        <CharString name="uni040B">
          198 21 -7 callgsubr
          32 vstem
          231 hmoveto
          269 vlineto
          90 80 76 89 93 78 -80 -93 vhcurveto
          -262 32 -29 callsubr
          112 -91 89 -112 -72 -62 -31 -61 -35 vhcurveto
          350 171 29 -374 -29 170 -721 vlineto
          endchar
        </CharString>
        <CharString name="uni040C">
          114 -84 callsubr
          221 -39 callsubr
          325 951 rmoveto
          -140 -139 rlineto
          40 hlineto
          139 139 rlineto
          -289 -201 -90 callgsubr
          endchar
        </CharString>
        <CharString name="uni040E">
          174 -84 callsubr
          80 -30 callsubr
          210 28 vstem
          334 835 -106 callsubr
          279 -85 rmoveto
          -31 hlineto
          -252 -534 -262 534 1 callsubr
          280 -569 -86 -181 rlineto
          31 hlineto
          endchar
        </CharString>
        <CharString name="uni040F">
          156 -24 callgsubr
          188 31 186 33 vstem
          296 hmoveto
          -97 31 97 219 750 -33 -721 -405 -24 callsubr
        </CharString>
        <CharString name="uni0410">
          334 -62 callsubr
          453 -20 hstem
          399 -103 callgsubr
          endchar
        </CharString>
        <CharString name="uni0411">
          -72 0 28 421 28 244 29 hstem
          75 33 217 33 vstem
          75 hmoveto
          33 hlineto
          132 118 106 134 128 -116 109 -125 hvcurveto
          -9 244 207 29 -240 hlineto
          33 -301 rmoveto
          8 hlineto
          118 91 -98 -111 -118 -101 -94 -108 hvcurveto
          -8 hlineto
          endchar
        </CharString>
        <CharString name="uni0412">
          -73 -89 callgsubr
        </CharString>
        <CharString name="uni0413">
          -98 -18 callgsubr
          hstem
          75 33 vstem
          342 721 rmoveto
          29 -267 -750 33 721 vlineto
          endchar
        </CharString>
        <CharString name="uni0414">
          430 -97 126 -29 29 738 20 callsubr
          29 765 31 hintmask 10111000
          35 -97 rmoveto
          29 hlineto
          hintmask 01111000
          97 765 vlineto
          hintmask 10111000
          -97 31 126 -48 vlineto
          -361 738 -361 -738 rlineto
          -55 hlineto
          413 669 rmoveto
          330 -669 rlineto
          -657 hlineto
          endchar
        </CharString>
        <CharString name="uni0415">
          -40 callsubr
          hstem
          75 33 -46 callgsubr
          endchar
        </CharString>
        <CharString name="uni0416">
          453 -44 callgsubr
          443 32 vstem
          443 -84 callgsubr
          -271 vlineto
          -249 271 1 callsubr
          274 -298 -407 -452 rlineto
          42 hlineto
          376 417 rlineto
          -417 32 417 vlineto
          377 -417 rlineto
          41 hlineto
          -406 452 274 298 rlineto
          -37 hlineto
          -249 -271 rlineto
          271 vlineto
          endchar
        </CharString>
        <CharString name="uni0417">
          70 -13 29 447 28 243 29 hstem
          356 33 73 33 vstem
          389 613 rmoveto
          82 -69 68 -86 -51 -43 -24 -36 -27 vhcurveto
          -52 vlineto
          51 16 52 32 53 hhcurveto
          68 54 -54 -67 -66 -54 -56 -68 hvcurveto
          -32 -28 38 hlineto
          125 97 -105 -120 -123 -102 -99 -120 -94 -76 57 78 -35 hvcurveto
          -56 vlineto
          -68 41 78 -40 85 hhcurveto
          141 115 112 136 110 -76 114 -110 24 hvcurveto
          47 27 33 46 57 vvcurveto
          endchar
        </CharString>
        <CharString name="uni0418">
          272 -44 callgsubr
          75 33 521 33 vstem
          629 -84 callgsubr
          -521 -701 rlineto
          701 20 callgsubr
          31 vlineto
          523 703 rlineto
          -703 19 callsubr
        </CharString>
        <CharString name="uni0419">
          272 -84 callsubr
          87 26 90 -74 callgsubr
          521 33 vstem
          381 843 -54 callgsubr
          248 -93 rmoveto
          -521 -701 rlineto
          701 20 callgsubr
          31 vlineto
          523 703 rlineto
          -703 19 callsubr
        </CharString>
        <CharString name="uni041A">
          112 -44 callgsubr
          75 33 vstem
          75 750 -90 callgsubr
          endchar
        </CharString>
        <CharString name="uni041B">
          331 21 -21 767 -20 hstem
          398 767 rmoveto
          -373 -767 rlineto
          32 hlineto
          338 695 340 -695 rlineto
          36 hlineto
          endchar
        </CharString>
        <CharString name="uni041C">
          454 7 -21 35 -74 callsubr
          hstemhm
          75 30 706 33 hintmask 01111000
          123 -84 callgsubr
          -48 -750 30 711 hlineto
          hintmask 10111000
          352 -725 354 725 rlineto
          hintmask 01111000
          -711 6 callsubr
          -46 vlineto
          -338 -692 rlineto
          endchar
        </CharString>
        <CharString name="uni041D">
          265 -62 callsubr
          435 -83 callsubr
          endchar
        </CharString>
        <CharString name="uni041E">
          415 -12 -60 callgsubr
          hstem
          50 33 714 33 vstem
          50 376 -107 callgsubr
          endchar
        </CharString>
        <CharString name="uni041F">
          157 -18 callgsubr
          hstem
          75 33 406 23 callsubr
          33 721 406 -721 19 callsubr
        </CharString>
        <CharString name="uni0420">
          -57 18 callgsubr
          75 33 217 33 vstem
          75 -75 callgsubr
        </CharString>
        <CharString name="uni0421">
          213 -11 -60 callgsubr
          hstem
          50 33 vstem
          643 82 rmoveto
          -41 -60 -70 -23 -73 -106 callgsubr
          75 -31 callsubr
          endchar
        </CharString>
        <CharString name="uni0422">
          -38 -18 callgsubr
          hstem
          198 33 vstem
          402 -69 callgsubr
          endchar
        </CharString>
        <CharString name="uni0423">
          166 -44 callgsubr
          606 -84 callgsubr
          -31 hlineto
          -252 -534 -262 534 1 callsubr
          280 -569 -86 -181 rlineto
          31 hlineto
          endchar
        </CharString>
        <CharString name="uni0424">
          382 -4 -21 60 27 628 27 58 -20 hstem
          50 33 324 33 325 32 vstem
          407 -25 rmoveto
          33 60 7 hlineto
          189 161 157 184 180 -157 161 -193 hvcurveto
          -7 58 -33 -58 -8 hlineto
          -189 -160 -154 -187 -180 157 -161 193 hvcurveto
          7 hlineto
          -7 27 rmoveto
          -174 -143 146 168 171 144 143 172 hvcurveto
          8 -628 hlineto
          41 628 rmoveto
          168 149 -146 -168 -171 -146 -143 -172 hvcurveto
          -7 628 hlineto
          endchar
        </CharString>
        <CharString name="uni0425">
          28 -44 callgsubr
          424 -70 callsubr
        </CharString>
        <CharString name="uni0426">
          183 -24 callgsubr
          405 33 48 29 vstem
          594 22 callsubr
          -33 -721 -405 -24 callsubr
        </CharString>
        <CharString name="uni0427">
          117 21 -21 284 29 437 -20 hstem
          60 33 381 33 vstem
          60 505 rmoveto
          -117 99 -104 120 vhcurveto
          10 hlineto
          83 70 54 68 32 hvcurveto
          -406 6 callsubr
          -33 -238 vlineto
          -108 -84 -91 -106 -107 -84 91 108 vhcurveto
          238 -33 vlineto
          endchar
        </CharString>
        <CharString name="uni0428">
          249 0 -4 callsubr
          233 32 233 33 cntrmask 00111000
          639 hmoveto
          750 -33 -27 callgsubr
        </CharString>
        <CharString name="uni0429">
          277 -24 callgsubr
          233 32 233 34 48 29 vstem
          688 22 callsubr
          -34 -27 callgsubr
        </CharString>
        <CharString name="uni042A">
          3 0 29 399 29 264 29 hstem
          150 33 202 33 vstem
          25 721 rmoveto
          125 -721 33 hlineto
          125 110 106 123 127 -121 101 -105 hvcurveto
          -9 293 -158 hlineto
          166 -322 rmoveto
          101 93 -91 -108 -108 -95 -92 -99 hvcurveto
          -8 399 hlineto
          endchar
        </CharString>
        <CharString name="uni042B">
          77 -14 callsubr
          91 33 vstem
          434 hmoveto
          6 callsubr
          -33 hlineto
          -359 hmoveto
          -68 callsubr
        </CharString>
        <CharString name="uni042C">
          -72 -14 callsubr
          vstem
          75 750 rmoveto
          -68 callsubr
        </CharString>
        <CharString name="uni042D">
          3 callgsubr
          595 33 vstem
          238 763 rmoveto
          -76 -67 -21 -36 -60 hvcurveto
          -36 vlineto
          41 60 70 23 73 hhcurveto
          196 161 -162 -197 -19 -2 -22 -3 -19 hvcurveto
          -374 -29 368 hlineto
          -148 -42 -142 -122 -162 hhcurveto
          -73 -70 23 41 -60 hvcurveto
          -37 vlineto
          -35 57 66 -21 73 hhcurveto
          15 hlineto
          208 174 184 204 212 -177 176 -213 hvcurveto
          endchar
        </CharString>
        <CharString name="uni042E">
          652 -13 29 5 -57 callsubr
          419 29 -13 -6 callsubr
          33 179 33 714 33 hintmask 01110111
          75 hmoveto
          33 286 189 hlineto
          hintmask 10110111
          -161 46 149 -138 177 hhcurveto
          15 hlineto
          209 174 184 204 213 -177 175 -213 -213 -177 -176 -212 -19 2 -22 3 -19 hvcurveto
          -184 hlineto
          hintmask 01101111
          435 -33 vlineto
          hintmask 10110111
          602 -16 rmoveto
          195 162 -162 -197 -196 -162 -163 -195 -197 -160 163 196 197 160 162 197 hvcurveto
          endchar
        </CharString>
        <CharString name="uni042F">
          -59 -12 callsubr
          hstem
          44 32 223 32 vstem
          288 -84 callgsubr
          -129 -115 -110 -129 -134 127 -105 109 hvcurveto
          13 hlineto
          -258 -272 -15 callsubr
          227 238 rlineto
          -238 32 750 vlineto
          -50 -449 rmoveto
          -107 -98 94 116 113 101 97 109 hvcurveto
          13 -420 hlineto
          endchar
        </CharString>
        <CharString name="uni0430">
          124 -13 callgsubr
          30 hintmask 10011100
          514 -78 callsubr
          -32 -113 hlineto
          hintmask 10101100
          -100 callgsubr
          hintmask 01011100
          -30 callgsubr
          hintmask 10101100
          -236 17 rmoveto
          -91 callgsubr
          115 91 -10 callsubr
          -91 -95 -115 hvcurveto
          endchar
        </CharString>
        <CharString name="uni0431">
          106 -13 -87 callgsubr
          223 -20 hstem
          55 12 callsubr
          vstem
          293 15 rmoveto
          -91 callgsubr
          115 91 -10 callsubr
          -91 -95 -115 hvcurveto
          444 vmoveto
          -84 -83 -47 -81 -40 hvcurveto
          9 vlineto
          133 115 70 93 37 vhcurveto
          182 73 rlineto
          29 vlineto
          -182 -72 rlineto
          -128 -51 -111 -51 -204 vvcurveto
          -76 vlineto
          -125 104 -116 126 vhcurveto
          16 callgsubr
          129 -105 107 -133 hvcurveto
          endchar
        </CharString>
        <CharString name="uni0432">
          -118 -9 callgsubr
          128 27 -5 callgsubr
          115 27 29 29 -2 callgsubr
          84 vlineto
          83 65 67 80 62 -42 60 -53 16 hvcurveto
          23 15 14 26 32 vvcurveto
          52 -38 40 -52 vhcurveto
          2 -182 rmoveto
          64 53 -52 -69 -65 -53 -55 -64 hvcurveto
          -54 241 hlineto
          53 155 rmoveto
          33 29 -32 -33 -35 -29 -28 -31 hvcurveto
          -55 128 hlineto
          endchar
        </CharString>
        <CharString name="uni0433">
          -166 21 -21 421 28 -5 callgsubr
          vstem
          274 421 rmoveto
          28 -199 -449 32 421 vlineto
          endchar
        </CharString>
        <CharString name="uni0434">
          71 -36 -21 57 27 436 -20 hstem
          25 -57 rmoveto
          26 57 432 -57 28 84 -33 hlineto
          -209 436 -209 -437 rlineto
          -35 hlineto
          241 369 rmoveto
          177 -368 rlineto
          -353 hlineto
          endchar
        </CharString>
        <CharString name="uni0435">
          25 -44 callsubr
          hstem
          40 32 vstem
          457 -102 callgsubr
          103 -113 129 hvcurveto
          11 hlineto
          72 59 -59 callsubr
        </CharString>
        <CharString name="uni0436">
          151 11 callgsubr
          292 32 vstem
          112 -78 callsubr
          176 -180 -263 -270 rlineto
          43 hlineto
          224 231 rlineto
          -231 32 231 vlineto
          224 -231 rlineto
          43 hlineto
          -263 270 176 180 1 callsubr
          -144 -145 rlineto
          145 -32 -145 vlineto
          -144 145 rlineto
          endchar
        </CharString>
        <CharString name="uni0437">
          -107 -13 27 256 27 134 27 hstemhm
          79 175 32 32 vstemhm
          254 364 rmoveto
          52 -43 42 -54 -33 -26 -14 -21 -19 vhcurveto
          -63 vlineto
          36 11 23 35 44 hhcurveto
          hintmask 11111000
          36 29 -31 -36 -36 -29 -31 -36 hvcurveto
          -20 -27 24 hlineto
          67 58 -60 -69 -68 -58 -59 -67 -67 -45 45 56 -19 hvcurveto
          -60 vlineto
          -41 28 47 -27 56 hhcurveto
          85 72 69 85 66 -49 64 -60 16 hvcurveto
          23 11 22 30 36 vvcurveto
          endchar
        </CharString>
        <CharString name="uni0438">
          68 21 -21 449 -70 callgsubr
          31 321 31 vstem
          429 449 rmoveto
          -323 -399 rlineto
          399 -31 -449 28 vlineto
          324 399 rlineto
          -399 31 449 vlineto
          endchar
        </CharString>
        <CharString name="uni0439">
          68 21 -21 579 26 90 -70 callgsubr
          31 321 31 vstem
          429 449 rmoveto
          -323 -399 rlineto
          399 -31 -449 28 vlineto
          324 399 rlineto
          -399 31 449 vlineto
          -181 156 -54 callgsubr
          endchar
        </CharString>
        <CharString name="uni043A">
          -62 11 callgsubr
          75 32 -2 callgsubr
          -88 callsubr
          156 vlineto
          endchar
        </CharString>
        <CharString name="uni043B">
          28 21 -21 463 -20 hstem
          54 hmoveto
          189 395 190 -395 rlineto
          35 hlineto
          -222 463 -221 -463 rlineto
          endchar
        </CharString>
        <CharString name="uni043C">
          148 9 -21 33 -50 callsubr
          hstemhm
          75 28 403 32 hintmask 01111000
          75 hmoveto
          28 395 hlineto
          hintmask 10111000
          200 -407 203 403 rlineto
          hintmask 01111000
          -391 32 450 -30 vlineto
          -200 -398 -197 398 1 callsubr
          endchar
        </CharString>
        <CharString name="uni043D">
          54 21 -21 169 28 253 -43 callsubr
          305 32 vstem
          412 -78 callsubr
          -253 -305 253 -32 -450 32 169 305 -169 32 450 vlineto
          endchar
        </CharString>
        <CharString name="uni043E">
          91 -43 callgsubr
          hstem
          40 12 callsubr
          vstem
          278 461 rmoveto
          -69 callsubr
          106 -113 127 hvcurveto
          10 hlineto
          131 102 -51 callsubr
          129 -105 107 -133 hvcurveto
          -28 vmoveto
          115 91 -10 callsubr
          -91 -95 -115 -91 callgsubr
          hvcurveto
          endchar
        </CharString>
        <CharString name="uni043F">
          47 21 -21 422 28 -5 callgsubr
          298 32 -2 callgsubr
          32 422 298 -422 32 450 vlineto
          endchar
        </CharString>
        <CharString name="uni0440">
          124 -5 callsubr
          75 32 410 32 hintmask 11101100
          75 -200 rmoveto
          32 309 hlineto
          -76 41 85 -44 78 hhcurveto
          133 105 107 129 129 -105 107 -133 -80 -87 -46 -75 -37 hvcurveto
          hintmask 11011100
          110 -32 vlineto
          236 -433 -25 callgsubr
          111 95 97 111 115 91 -10 callsubr
          -91 -95 -115 vhcurveto
          endchar
        </CharString>
        <CharString name="uni0441">
          21 -13 -87 callgsubr
          hstem
          40 32 vstem
          456 116 rmoveto
          -61 -41 -66 -40 -71 hhcurveto
          -86 callgsubr
          71 66 -40 -60 41 14 callsubr
          47 -44 -62 -81 callsubr
          -123 104 -113 130 7 callgsubr
          72 58 30 47 43 hvcurveto
          endchar
        </CharString>
        <CharString name="uni0442">
          -39 21 -21 421 28 hstem
          197 32 vstem
          401 449 rmoveto
          -376 -28 172 -421 32 421 172 hlineto
          endchar
        </CharString>
        <CharString name="uni0443">
          43 15 callgsubr
          650 -20 hstem
          483 -78 callsubr
          -29 hlineto
          -197 -413 -198 413 rlineto
          -34 hlineto
          215 -449 -95 -201 rlineto
          29 hlineto
          endchar
        </CharString>
        <CharString name="uni0444">
          136 -177 -21 192 28 411 28 168 -20 hstem
          40 30 219 32 209 31 vstem
          289 629 rmoveto
          -168 -8 vlineto
          -130 -111 -106 -128 -123 108 -110 133 hvcurveto
          8 -192 32 192 7 hlineto
          133 100 110 123 128 -103 106 -132 hvcurveto
          -5 168 hlineto
          -32 -196 rmoveto
          -411 -8 vlineto
          -111 -100 93 112 111 100 95 111 hvcurveto
          40 hmoveto
          5 hlineto
          113 91 -95 -111 -112 -91 -93 -112 hvcurveto
          -6 hlineto
          endchar
        </CharString>
        <CharString name="uni0445">
          -23 11 callgsubr
          236 -67 callgsubr
        </CharString>
        <CharString name="uni0446">
          68 -25 callsubr
          298 32 43 28 vstem
          405 -78 callsubr
          -422 -298 422 -32 -450 405 -97 28 126 -71 421 vlineto
          endchar
        </CharString>
        <CharString name="uni0447">
          -29 21 -21 151 26 273 -20 hstem
          40 32 258 31 vstem
          40 310 rmoveto
          -85 72 -74 87 vhcurveto
          6 hlineto
          55 47 30 41 23 hvcurveto
          -222 31 450 -32 -137 vlineto
          -74 -56 -62 -72 -73 -56 62 74 vhcurveto
          137 -32 vlineto
          endchar
        </CharString>
        <CharString name="uni0448">
          149 0 28 422 -43 callsubr
          184 32 184 32 cntrmask 00111000
          539 hmoveto
          450 -32 -422 -184 422 -32 -422 -184 422 -32 -450 vlineto
          endchar
        </CharString>
        <CharString name="uni0449">
          173 -25 callsubr
          185 32 185 32 41 31 vstem
          75 hmoveto
          507 -97 31 126 -72 421 -32 -422 -185 422 -32 -422 -185 422 -32 hlineto
          endchar
        </CharString>
        <CharString name="uni044A">
          -83 -9 callgsubr
          127 28 hstem
          115 32 164 31 vstem
          25 -78 callsubr
          -28 90 -422 -82 callgsubr
        </CharString>
        <CharString name="uni044B">
          33 -9 callgsubr
          155 -43 callsubr
          164 31 89 31 vstem
          391 4 callgsubr
          31 450 vlineto
          -347 hmoveto
          -450 -82 callgsubr
        </CharString>
        <CharString name="uni044C">
          -123 -9 callgsubr
          155 -43 callsubr
          164 31 -2 callgsubr
          -82 callgsubr
        </CharString>
        <CharString name="uni044D">
          21 17 callgsubr
          414 32 vstem
          157 170 rmoveto
          251 hlineto
          -82 -27 -83 -73 -90 hhcurveto
          -71 -66 40 61 -41 hvcurveto
          -52 vlineto
          -47 44 62 -30 72 hhcurveto
          130 108 107 129 123 -105 113 -128 hvcurveto
          -9 hlineto
          -72 -59 -30 -47 -43 hvcurveto
          -52 vlineto
          61 41 66 40 71 hhcurveto
          111 95 -95 -113 -8 -1 -11 -1 -7 hvcurveto
          -255 hlineto
          endchar
        </CharString>
        <CharString name="uni044E">
          271 -11 28 4 -21 169 28 236 28 -11 -6 callsubr
          32 113 12 callsubr
          hintmask 01110111
          75 hmoveto
          32 169 119 hlineto
          hintmask 10110111
          -93 29 90 -87 109 hhcurveto
          8 hlineto
          129 105 -51 callsubr
          129 -107 107 -131 -132 -106 -107 -129 -8 -1 -11 3 -9 hvcurveto
          -115 hlineto
          hintmask 01101111
          253 -32 vlineto
          hintmask 10110111
          383 -17 rmoveto
          112 94 -10 callsubr
          -94 -95 -112 -112 -94 95 113 111 94 97 112 hvcurveto
          endchar
        </CharString>
        <CharString name="uni044F">
          -137 21 -21 423 27 hstem
          45 29 147 32 vstem
          40 hmoveto
          34 hlineto
          114 155 rlineto
          33 -155 32 450 -60 hlineto
          -81 -67 -67 -80 -71 46 -58 65 -16 hvcurveto
          65 24 rmoveto
          -30 hlineto
          -62 -55 57 64 63 55 57 62 hvcurveto
          30 hlineto
          endchar
        </CharString>
        <CharString name="uni0451">
          35 -44 callsubr
          117 54 hstem
          40 32 120 -14 callgsubr
          vstem
          192 604 rmoveto
          -92 callsubr
          19 10 -26 callsubr
          -10 9 -19 -19 -10 -9 -18 vhcurveto
          107 hmoveto
          -92 callsubr
          17 9 -26 callsubr
          -33 callsubr
          -19 -10 -9 -18 vhcurveto
          158 -487 -104 callgsubr
          103 -113 129 hvcurveto
          11 hlineto
          72 59 -59 callsubr
        </CharString>
        <CharString name="uni0452">
          175 -198 28 191 -77 callsubr
          118 29 140 -20 hstem
          161 33 338 33 vstem
          25 579 rmoveto
          136 -579 33 269 hlineto
          87 78 77 91 92 77 -79 -92 -23 callsubr
          vlineto
          -83 -60 -58 -78 vhcurveto
          -28 vlineto
          92 79 68 101 hvcurveto
          291 -53 callgsubr
        </CharString>
        <CharString name="uni0453">
          -166 21 -21 422 27 254 -70 callgsubr
          31 vstem
          273 422 rmoveto
          27 -198 -449 31 422 vlineto
          127 281 rmoveto
          -140 -139 rlineto
          42 hlineto
          139 139 rlineto
          endchar
        </CharString>
        <CharString name="uni0454">
          26 17 callgsubr
          40 32 vstem
          329 197 rmoveto
          -255 hlineto
          -1 7 -1 11 8 vvcurveto
          113 95 95 111 71 66 -40 -61 41 vhcurveto
          52 vlineto
          47 -43 -59 30 -69 hhcurveto
          -15 hlineto
          -126 -104 -113 -123 -129 108 -107 130 72 62 30 47 44 hvcurveto
          52 vlineto
          -61 -41 -66 -40 -71 hhcurveto
          -90 -83 73 82 -27 hvcurveto
          251 hlineto
          endchar
        </CharString>
        <CharString name="uni0455">
          -108 -11 -9 callsubr
          hstem
          68 32 185 32 vstem
          247 -103 callsubr
          endchar
        </CharString>
        <CharString name="uni0456">
          -247 21 -21 559 54 hstemhm
          80 58 -45 32 hintmask 11010000
          125 -78 callgsubr
          hintmask 11100000
          -45 586 rmoveto
          -92 callsubr
          19 10 -26 callsubr
          -10 9 -19 -19 -10 -9 -18 vhcurveto
          endchar
        </CharString>
        <CharString name="uni0457">
          -263 21 -21 559 54 hstem
          20 58 8 32 9 55 vstem
          20 586 rmoveto
          -92 callsubr
          19 10 -26 callsubr
          -10 9 -19 -19 -10 -9 -18 vhcurveto
          107 hmoveto
          -92 callsubr
          17 9 -26 callsubr
          -33 callsubr
          -19 -10 -9 -18 vhcurveto
          -9 -137 rmoveto
          -32 -449 32 hlineto
          endchar
        </CharString>
        <CharString name="uni0458">
          -193 9 callsubr
          150 33 -33 47 hintmask 11110000
          10 -31 callgsubr
          479 -33 -479 vlineto
          -83 -63 -58 -77 vhcurveto
          129 756 rmoveto
          -92 callsubr
          vhcurveto
          hintmask 11101000
          19 10 -26 callsubr
          -10 9 -19 -19 -10 -9 -18 hvcurveto
          endchar
        </CharString>
        <CharString name="uni0459">
          163 -9 callgsubr
          127 28 hstem
          171 29 186 32 141 29 vstem
          30 hmoveto
          93 77 68 101 hvcurveto
          253 186 -422 54 vlineto
          81 67 67 80 80 -65 68 -80 hvcurveto
          -25 155 -247 -281 hlineto
          -83 -64 -58 -77 vhcurveto
          388 240 rmoveto
          24 hlineto
          62 55 -57 -64 -65 -55 -55 -62 hvcurveto
          -24 hlineto
          endchar
        </CharString>
        <CharString name="uni045A">
          136 0 27 241 28 154 -43 callsubr
          254 31 140 29 vstem
          361 -78 callsubr
          -154 -254 154 -32 -450 32 268 254 -268 52 vlineto
          83 65 67 80 80 -62 68 -83 hvcurveto
          -24 155 hlineto
          -182 vmoveto
          23 hlineto
          64 53 -57 -64 -65 -53 -55 -64 hvcurveto
          -23 hlineto
          endchar
        </CharString>
        <CharString name="uni045B">
          175 21 -77 callsubr
          118 29 140 -20 hstem
          161 33 338 33 vstem
          25 579 rmoveto
          136 -579 33 269 hlineto
          87 78 77 91 92 77 -79 -92 vhcurveto
          -262 33 262 -53 callgsubr
        </CharString>
        <CharString name="uni045C">
          -62 5 callgsubr
          273 -43 callsubr
          vstem
          253 703 rmoveto
          -140 -139 rlineto
          42 hlineto
          139 139 rlineto
          -219 -253 rmoveto
          -450 -88 callsubr
          156 vlineto
          endchar
        </CharString>
        <CharString name="uni045E">
          43 15 callgsubr
          650 -20 142 -30 callsubr
          146 28 vstem
          270 597 -106 callsubr
          213 -147 rmoveto
          -29 hlineto
          -197 -413 -198 413 rlineto
          -34 hlineto
          215 -449 -95 -201 rlineto
          29 hlineto
          endchar
        </CharString>
        <CharString name="uni045F">
          45 -25 callsubr
          134 29 133 32 vstem
          403 -78 callsubr
          -422 -296 422 -32 -450 166 -97 29 97 165 450 vlineto
          endchar
        </CharString>
        <CharString name="uni0490">
          -98 -18 callgsubr
          99 -74 callgsubr
          201 33 vstem
          108 721 rmoveto
          234 128 -33 -99 -234 -750 33 hlineto
          endchar
        </CharString>
        <CharString name="uni0491">
          -166 21 -21 422 28 103 -43 callsubr
          136 31 vstem
          107 422 rmoveto
          167 131 -31 -103 -168 -450 32 hlineto
          endchar
        </CharString>
        <CharString name="uni2116">
          646 10 -21 32 -21 285 31 116 29 268 29 -8 -20 31 -36 callgsubr
          86 32 265 32 hintmask 0111100111100000
          910 432 -94 callgsubr
          165 -444 rmoveto
          31 -329 -31 vlineto
          hintmask 0111001111100000
          -667 476 rmoveto
          -761 29 668 vlineto
          hintmask 1011010111100000
          -63 callsubr
          endchar
        </CharString>
        <CharString name="uniF6C3">
          -366 -38 callgsubr
          -20 hstem
          46 -195 -101 callgsubr
        </CharString>
        <CharString name="uogonek">
          39 -15 callgsubr
          164 -45 callsubr
          hstemhm
          -38 callsubr
          hintmask 11011100
          422 -78 callsubr
          -262 vlineto
          -92 -83 -79 -91 -92 -74 79 92 vhcurveto
          262 -32 -262 vlineto
          -110 85 -89 113 72 66 30 72 36 vhcurveto
          hintmask 10111100
          -91 3 vlineto
          -86 -123 -93 callsubr
          87 125 rlineto
          1 450 hlineto
          endchar
        </CharString>
        <CharString name="uring">
          -56 callsubr
          82 24 102 24 hstemhm
          50 32 94 25 100 26 95 32 hintmask 1011111110000000
          422 -78 callsubr
          -262 vlineto
          -92 -83 -79 -91 -92 -74 79 92 vhcurveto
          262 -32 -262 vlineto
          -110 85 -89 113 72 66 30 72 36 vhcurveto
          hintmask 0111111110000000
          -51 callgsubr
          -201 62 -98 callgsubr
        </CharString>
        <CharString name="utilde">
          -56 callsubr
          117 7 callsubr
          hstemhm
          -38 callsubr
          hintmask 10111110
          422 -78 callsubr
          -262 vlineto
          -92 -83 -79 -91 -92 -74 79 92 vhcurveto
          262 -32 -262 vlineto
          -110 85 -89 113 72 66 30 72 36 vhcurveto
          hintmask 01111110
          -51 callgsubr
          -63 174 -105 callsubr
        </CharString>
        <CharString name="v">
          28 8 -21 463 -20 hstem
          439 -78 callsubr
          -189 -395 -190 395 rlineto
          -35 hlineto
          222 -463 221 463 rlineto
          endchar
        </CharString>
        <CharString name="w">
          219 10 -21 460 -20 21 -20 hstemhm
          hintmask 10100000
          25 -78 callsubr
          216 -461 103 219 102 -219 rlineto
          hintmask 11000000
          213 460 rlineto
          -29 hlineto
          -183 -394 -86 185 rlineto
          hintmask 10100000
          98 210 rlineto
          -30 hlineto
          -83 -179 -81 177 rlineto
          -32 hlineto
          97 -208 -87 -183 -185 393 rlineto
          endchar
        </CharString>
        <CharString name="wacute">
          -11 callsubr
          -20 214 -20 hstem
          -97 callsubr
          333 194 -71 callgsubr
          endchar
        </CharString>
        <CharString name="wcircumflex">
          -11 callsubr
          79 -8 callsubr
          hstem
          -97 callsubr
          300 194 rmoveto
          -30 hlineto
          -134 -115 rlineto
          42 hlineto
          106 91 107 -91 rlineto
          41 hlineto
          endchar
        </CharString>
        <CharString name="wdieresis">
          -11 callsubr
          108 0 54 hstemhm
          261 -14 callgsubr
          hintmask 11011000
          -97 callsubr
          203 135 rmoveto
          -92 callsubr
          19 10 9 18 vhcurveto
          hintmask 10111000
          18 -10 9 -19 -19 -10 -9 -18 vhcurveto
          107 hmoveto
          -92 callsubr
          17 9 -26 callsubr
          -33 callsubr
          -19 -10 -9 -18 vhcurveto
          endchar
        </CharString>
        <CharString name="wgrave">
          -11 callsubr
          -20 214 -20 hstem
          -97 callsubr
          193 194 rmoveto
          139 -115 rlineto
          42 hlineto
          -140 -54 callsubr
        </CharString>
        <CharString name="x">
          -32 11 callgsubr
          232 -67 callgsubr
        </CharString>
        <CharString name="y">
          39 -199 28 160 28 433 -20 hstem
          -38 callsubr
          vstem
          422 -101 callsubr
          endchar
        </CharString>
        <CharString name="yacute">
          59 -199 28 160 28 433 -20 214 -20 hstem
          60 0 callgsubr
          vstem
          432 -101 callsubr
          -153 194 -71 callgsubr
          endchar
        </CharString>
        <CharString name="ycircumflex">
          39 -199 28 0 160 0 28 433 -20 214 -20 hstem
          -38 callsubr
          vstem
          422 -101 callsubr
          -186 194 rmoveto
          -30 hlineto
          -134 -115 rlineto
          42 hlineto
          106 91 107 -91 rlineto
          41 hlineto
          endchar
        </CharString>
        <CharString name="ydieresis">
          59 -199 28 160 28 433 -20 128 54 14 callgsubr
          89 -14 callgsubr
          89 32 vstem
          432 -101 callsubr
          -283 135 rmoveto
          -92 callsubr
          19 10 -26 callsubr
          -10 9 -19 -19 -10 -9 -18 vhcurveto
          107 hmoveto
          -92 callsubr
          17 9 -26 callsubr
          -33 callsubr
          -19 -10 -9 -18 vhcurveto
          endchar
        </CharString>
        <CharString name="yen">
          69 21 -21 174 29 99 31 417 -20 hstem
          253 33 vstem
          424 174 rmoveto
          29 -138 99 138 31 -122 vlineto
          207 417 rlineto
          -31 hlineto
          -207 -415 -211 415 rlineto
          -35 hlineto
          211 -417 rlineto
          -123 -31 140 -99 -140 -29 140 -174 33 174 hlineto
          endchar
        </CharString>
        <CharString name="ygrave">
          39 -199 28 160 28 433 -20 214 -20 hstem
          -38 callsubr
          vstem
          422 -101 callsubr
          -293 194 rmoveto
          139 -115 rlineto
          42 hlineto
          -140 -54 callsubr
        </CharString>
        <CharString name="z">
          -102 5 callsubr
          hstem
          338 -79 callsubr
          endchar
        </CharString>
        <CharString name="zacute">
          -102 5 callsubr
          -1 callsubr
          338 -79 callsubr
          150 616 -71 callgsubr
          endchar
        </CharString>
        <CharString name="zcaron">
          -82 5 callsubr
          -28 222 hstemhm
          hintmask 11000000
          348 -79 callsubr
          hintmask 10100000
          248 616 rmoveto
          -41 hlineto
          -107 -91 -106 91 rlineto
          -42 hlineto
          134 -115 rlineto
          30 hlineto
          endchar
        </CharString>
        <CharString name="zdotaccent">
          -102 5 callsubr
          109 54 hstem
          152 58 vstem
          338 -79 callsubr
          71 558 rmoveto
          -92 callsubr
          19 10 -26 callsubr
          -10 9 -19 -19 -10 -9 -18 vhcurveto
          endchar
        </CharString>
        <CharString name="zero">
          391 -13 29 716 29 hstem
          40 33 710 33 vstem
          435 -13 rmoveto
          209 172 181 205 213 -175 175 -213 -21 callsubr
          8 745 rmoveto
          195 160 -162 -197 -50 callgsubr
          -161 -195 -196 -159 161 196 197 159 162 196 hvcurveto
          endchar
        </CharString>
      <CharString index="0">
        rmoveto
        -204 174 -184 208 vhcurveto
        8 callgsubr
        213 -174 175 -216 -213 -177 -176 -212 hvcurveto
        390 359 rmoveto
        197 160 -162 -197 -50 callgsubr
        -163 -197 -196 -161 163 196 197 161 162 196 hvcurveto
        return
      </CharString>
      <CharString index="1">
        hhcurveto
        -196 -161 163 196 197 161 162 196 73 70 -23 -41 60 1 callgsubr
        35 -60 -67 21 -76 hhcurveto
        -213 -177 -176 -212 -204 173 -184 211 hvcurveto
        11 hlineto
        return
      </CharString>
      <CharString index="2">
        -140 -115 rlineto
        42 hlineto
        139 115 rlineto
        return
      </CharString>
      <CharString index="3">
        rmoveto
        -61 -41 -67 -40 -71 hhcurveto
        -45 -48 21 31 -39 hvcurveto
        314 310 rlineto
        52 -47 -63 -81 callsubr
        -123 return
      </CharString>
      <CharString index="4">
        768 rmoveto
        -374 -768 rlineto
        31 hlineto
        140 286 rlineto
        401 hlineto
        142 -286 rlineto
        35 hlineto
        -378 699 rmoveto
        189 -384 rlineto
        -376 hlineto
        return
      </CharString>
      <CharString index="5">
        117 -104 callgsubr
        return
      </CharString>
      <CharString index="6">
        -99 callgsubr
        20 -15 11 -21 -22 -11 -10 -21 -76 callsubr
        vhcurveto
        endchar
      </CharString>
      <CharString index="7">
        77 -32 -90 47 -82 hhcurveto
        -131 -107 -107 -129 -129 107 -107 131 83 83 45 78 38 hvcurveto
        return
      </CharString>
      <CharString index="8">
        rmoveto
        4 hlineto
        31 71 rlineto
        2 6 1 5 5 vvcurveto
        return
      </CharString>
      <CharString index="9">
        rmoveto
        40 34 35 40 41 -33 34 -43 -41 -34 -34 -41 -40 33 -35 40 hvcurveto
        2 126 rmoveto
        28 22 -24 -27 -27 -22 -24 -28 -27 -23 24 27 27 23 24 27 hvcurveto
        endchar
      </CharString>
      <CharString index="10">
        -130 -108 -107 -129 return
      </CharString>
      <CharString index="11">
        77 -37 -84 45 -84 hhcurveto
        -131 -107 -107 -129 -129 107 -107 131 80 88 45 76 37 hvcurveto
        -67 vlineto
        -140 -85 -82 -115 -78 -82 48 64 -35 vhcurveto
        -46 vlineto
        -56 40 79 -38 76 hhcurveto
        137 95 93 157 hvcurveto
        return
      </CharString>
      <CharString index="12">
        -13 rmoveto
        212 171 184 204 213 -174 175 -216 -213 -177 -176 -212 -204 174 -184 208 hvcurveto
        8 747 rmoveto
        197 160 -162 -197 -50 callgsubr
        -163 -197 -196 -161 163 196 197 161 162 196 hvcurveto
        return
      </CharString>
      <CharString index="13">
        rmoveto
        90 71 78 84 91 -73 73 -92 -90 -74 -73 -91 -84 72 -78 86 hvcurveto
        6 297 rmoveto
        72 61 -63 -72 -71 -61 -62 -72 -69 -63 62 71 72 63 63 69 hvcurveto
        return
      </CharString>
      <CharString index="14">
        -71 callgsubr
        81 hmoveto
        -105 callgsubr
        endchar
      </CharString>
      <CharString index="15">
        -21 11 -10 22 21 15 11 20 20 -15 11 -21 -22 -11 -10 -21 vhcurveto
        return
      </CharString>
      <CharString index="16">
        -98 callsubr
        111 95 97 111 return
      </CharString>
      <CharString index="17">
        rmoveto
        -750 33 417 vlineto
        400 -417 rlineto
        44 hlineto
        -431 451 343 299 rlineto
        -40 hlineto
        -317 -275 rlineto
        275 vlineto
        return
      </CharString>
      <CharString index="18">
        0 28 431 27 236 28 -5 callgsubr
        122 31 66 31 17 callsubr
        139 111 107 136 123 -80 87 -99 24 hvcurveto
        44 16 38 63 50 vvcurveto
        85 -68 59 -85 -23 callsubr
        vmoveto
        8 hlineto
        116 95 -97 -119 -115 -95 -100 -116 hvcurveto
        -8 hlineto
        694 vmoveto
        8 hlineto
        61 53 -52 -64 -62 -53 -58 -61 hvcurveto
        -8 hlineto
        endchar
      </CharString>
      <CharString index="19">
        721 rmoveto
        185 -495 hlineto
        -121 -69 -91 -118 -56 -57 26 43 -39 vhcurveto
        -41 vlineto
        -33 39 52 -24 56 hhcurveto
        10 hlineto
        129 86 101 144 hvcurveto
        520 -218 vlineto
        return
      </CharString>
      <CharString index="20">
        28 416 28 return
      </CharString>
      <CharString index="21">
        -98 callsubr
        113 95 95 111 return
      </CharString>
      <CharString index="22">
        -92 -79 -68 -101 hvcurveto
        -263 -200 263 vlineto
        -66 callgsubr
        -463 32 172 200 -172 32 172 return
      </CharString>
      <CharString index="23">
        750 rmoveto
        return
      </CharString>
      <CharString index="24">
        28 4 -77 callsubr
        return
      </CharString>
      <CharString index="25">
        78 vlineto
        81 68 67 80 80 -65 68 -81 hvcurveto
        -49 155 hlineto
        -182 vmoveto
        47 hlineto
        62 55 -57 -64 -65 -55 -55 -62 hvcurveto
        -47 hlineto
        endchar
      </CharString>
      <CharString index="26">
        hmoveto
        -29 callsubr
        92 81 79 92 93 74 -79 -92 vhcurveto
        -262 32 -29 callsubr
        110 -86 89 -113 -72 -66 -30 -68 -35 vhcurveto
        return
      </CharString>
      <CharString index="27">
        -57 callgsubr
        750 vlineto
        return
      </CharString>
      <CharString index="28">
        -189 -17 rmoveto
        41 39 -13 -21 32 hvcurveto
        -246 -331 rlineto
        -44 39 -28 55 63 vvcurveto
        111 95 97 111 vhcurveto
        206 -208 rmoveto
        -113 -91 -95 -115 -40 -37 11 22 -33 vhcurveto
        246 330 rlineto
        43 -39 27 -56 -60 vvcurveto
        return
      </CharString>
      <CharString index="29">
        449 rmoveto
        -32 -449 32 hlineto
        return
      </CharString>
      <CharString index="30">
        408 vlineto
        -237 -434 rmoveto
        -98 callsubr
        hvcurveto
        return
      </CharString>
      <CharString index="31">
        hstem
        397 33 vstem
        397 -84 callgsubr
        -372 -750 rlineto
        31 hlineto
        140 286 rlineto
        201 -286 -55 callsubr
        258 197 29 -197 405 236 29 hlineto
        -269 -58 rmoveto
        -377 -188 vlineto
        return
      </CharString>
      <CharString index="32">
        -57 callgsubr
        273 8 vlineto
        116 126 102 136 127 -110 112 -140 hvcurveto
        -449 vmoveto
        420 8 vlineto
        108 101 -97 -113 -116 -98 -94 -111 hvcurveto
        endchar
      </CharString>
      <CharString index="33">
        -70 callgsubr
        33 return
      </CharString>
      <CharString index="34">
        323 429 rmoveto
        20 -27 -33 12 -37 hhcurveto
        -52 -58 -32 -46 -24 hvcurveto
        return
      </CharString>
      <CharString index="35">
        -252 -39 callgsubr
        90 33 vstem
        90 -80 callgsubr
        return
      </CharString>
      <CharString index="36">
        rmoveto
        -105 callgsubr
        return
      </CharString>
      <CharString index="37">
        -20 hstem
        75 return
      </CharString>
      <CharString index="38">
        -84 callgsubr
        -377 -29 173 -721 33 721 171 hlineto
        return
      </CharString>
      <CharString index="39">
        266 10 -21 32 -74 callsubr
        214 -36 callgsubr
        hintmask 01111100
        75 -53 callsubr
        hintmask 10111100
        -63 callsubr
        return
      </CharString>
      <CharString index="40">
        273 rmoveto
        116 177 rlineto
        -32 hlineto
        -100 -152 -100 152 rlineto
        -37 hlineto
        119 -180 -177 -270 rlineto
        32 hlineto
        161 245 162 -245 -15 callsubr
        endchar
      </CharString>
      <CharString index="41">
        82 63 59 76 vhcurveto
        28 vlineto
        -92 -79 -68 -101 hvcurveto
        return
      </CharString>
      <CharString index="42">
        rmoveto
        -26 vlineto
        218 -196 rlineto
        45 vlineto
        -184 164 184 163 rlineto
        43 vlineto
        return
      </CharString>
      <CharString index="43">
        88 71 78 84 91 -73 73 -90 -92 -72 -73 -91 -84 70 -78 88 hvcurveto
        6 297 rmoveto
        72 59 -63 -72 -71 -59 -62 -72 -72 -62 62 71 72 62 63 72 hvcurveto
        return
      </CharString>
      <CharString index="44">
        22 -71 callsubr
        258 138 28 -138 return
      </CharString>
      <CharString index="45">
        0 -73 callsubr
        return
      </CharString>
      <CharString index="46">
        rmoveto
        -76 callsubr
        21 10 10 21 21 -10 10 -21 -21 -10 -10 -21 vhcurveto
        endchar
      </CharString>
      <CharString index="47">
        29 718 29 return
      </CharString>
      <CharString index="48">
        894 118 rmoveto
        -61 -41 -67 -40 -71 hhcurveto
        -45 -48 21 31 -39 hvcurveto
        314 310 rlineto
        52 -47 -63 30 -72 hhcurveto
        -89 -78 -50 -72 -40 hvcurveto
        return
      </CharString>
      <CharString index="49">
        27 44 29 23 33 3 rrcurveto
        77 57 -72 79 hhcurveto
        27 27 15 31 27 hvcurveto
        return
      </CharString>
      <CharString index="50">
        -90 callsubr
        33 return
      </CharString>
      <CharString index="51">
        105 -208 28 168 -87 callgsubr
        -10 -20 return
      </CharString>
      <CharString index="52">
        -80 callsubr
        32 return
      </CharString>
      <CharString index="53">
        rmoveto
        -49 -43 41 49 -4 hvcurveto
        -28 hlineto
        -63 3 52 -53 65 hhcurveto
        8 hlineto
        64 54 53 63 3 hvcurveto
        -29 hlineto
        -47 -5 -43 -43 -48 hhcurveto
        return
      </CharString>
      <CharString index="54">
        vlineto
        110 -89 89 -113 -75 -59 -31 -61 -35 vhcurveto
        210 169 29 -169 140 -33 -140 -136 vlineto
        endchar
      </CharString>
      <CharString index="55">
        31 22 -22 -28 -27 -22 -23 -31 hvcurveto
        return
      </CharString>
      <CharString index="56">
        -91 32 450 vlineto
        return
      </CharString>
      <CharString index="57">
        -196 -160 return
      </CharString>
      <CharString index="58">
        24 -37 -45 14 -48 hhcurveto
        -97 callgsubr
        -71 33 -66 53 -44 hvcurveto
        -33 -44 -15 callsubr
        19 26 rlineto
        return
      </CharString>
      <CharString index="59">
        rmoveto
        56 17 39 46 64 vvcurveto
        return
      </CharString>
      <CharString index="60">
        -20 hstemhm
        60 0 callgsubr
        return
      </CharString>
      <CharString index="61">
        vstem
        344 721 rmoveto
        29 -269 -17 callgsubr
        vlineto
        return
      </CharString>
      <CharString index="62">
        228 -11 29 268 29 421 29 return
      </CharString>
      <CharString index="63">
        -84 callsubr
        hstem
        return
      </CharString>
      <CharString index="64">
        -11 -87 callgsubr
        return
      </CharString>
      <CharString index="65">
        -25 36 40 -12 45 hhcurveto
        16 callgsubr
        72 -33 63 -51 44 hvcurveto
        35 46 rlineto
        return
      </CharString>
      <CharString index="66">
        21 vhcurveto
        endchar
      </CharString>
      <CharString index="67">
        105 -78 callgsubr
        return
      </CharString>
      <CharString index="68">
        -84 callsubr
        214 -20 hstem
        return
      </CharString>
      <CharString index="69">
        -174 -21 118 return
      </CharString>
      <CharString index="70">
        387 rmoveto
        -134 33 134 138 31 -138 139 -33 -139 -140 -31 vlineto
        return
      </CharString>
      <CharString index="71">
        -6 callsubr
        29 523 29 return
      </CharString>
      <CharString index="72">
        -21 272 29 420 29 return
      </CharString>
      <CharString index="73">
        340 32 return
      </CharString>
      <CharString index="74">
        hstemhm
        60 32 return
      </CharString>
      <CharString index="75">
        -5 -31 callgsubr
        479 -32 -479 vlineto
        -83 -63 -58 -78 vhcurveto
        return
      </CharString>
      <CharString index="76">
        -198 rmoveto
        93 80 68 101 hvcurveto
        return
      </CharString>
      <CharString index="77">
        -112 32 vlineto
        return
      </CharString>
      <CharString index="78">
        17 9 9 return
      </CharString>
      <CharString index="79">
        vlineto
        -50 -5 -42 -34 -33 -62 rrcurveto
        36 hlineto
        27 45 29 23 33 3 rrcurveto
        33 hlineto
        return
      </CharString>
      <CharString index="80">
        -721 -233 721 -32 -721 -233 -24 callsubr
      </CharString>
      <CharString index="81">
        32 412 return
      </CharString>
      <CharString index="82">
        rmoveto
        -98 callsubr
        hvcurveto
        hintmask 11101100
        return
      </CharString>
      <CharString index="83">
        -76 -21 97 -4 callsubr
        return
      </CharString>
      <CharString index="84">
        558 8 -21 763 return
      </CharString>
      <CharString index="85">
        hstemhm
        45 -26 callgsubr
        30 hintmask 10011111
        -17 callsubr
        return
      </CharString>
      <CharString index="86">
        -17 9 -9 17 -29 callgsubr
        17 17 -33 callsubr
        -17 -9 -9 -17 vhcurveto
        return
      </CharString>
      <CharString index="87">
        -272 -84 callsubr
        return
      </CharString>
      <CharString index="88">
        11 -20 -20 -13 -11 -20 vhcurveto
        return
      </CharString>
      <CharString index="89">
        21 -1 callgsubr
        return
      </CharString>
      <CharString index="90">
        -750 269 -94 callsubr
        return
      </CharString>
      <CharString index="91">
        -8 callsubr
        hstemhm
        return
      </CharString>
      <CharString index="92">
        -200 25 return
      </CharString>
      <CharString index="93">
        58 49 55 return
      </CharString>
      <CharString index="94">
        -11 -83 callgsubr
        -11 -20 hstemhm
        40 -26 callgsubr
        return
      </CharString>
      <CharString index="95">
        -557 -748 -15 callsubr
        559 748 rlineto
        endchar
      </CharString>
      <CharString index="96">
        478 -78 callsubr
        -112 vlineto
        return
      </CharString>
      <CharString index="97">
        30 -44 callsubr
        return
      </CharString>
      <CharString index="98">
        0 27 241 27 return
      </CharString>
      <CharString index="99">
        20 callsubr
        32 return
      </CharString>
      <CharString index="100">
        -21 435 28 258 29 hstem
        198 33 340 return
      </CharString>
      <CharString index="101">
        25 91 -20 return
      </CharString>
      <CharString index="102">
        hstem
        75 32 return
      </CharString>
      <CharString index="103">
        30 -5 callgsubr
        341 33 vstem
        75 -84 callgsubr
        return
      </CharString>
      <CharString index="104">
        550 -21 -8 callsubr
        hstem
        return
      </CharString>
      <CharString index="105">
        vstem
        75 4 callgsubr
        return
      </CharString>
      <CharString index="106">
        -21 721 29 return
      </CharString>
      <CharString index="107">
        32 -34 callgsubr
        return
      </CharString>
      <CharString index="108">
        hvcurveto
        37 vlineto
        return
      </CharString>
      <CharString index="109">
        29 hstem
        75 23 callsubr
        return
      </CharString>
      <CharString index="110">
        213 -13 29 270 29 419 29 hstem
        return
      </CharString>
      <CharString index="111">
        -78 callsubr
        -450 return
      </CharString>
      <CharString index="112">
        21 -50 callsubr
        return
      </CharString>
      <CharString index="113">
        -33 -538 return
      </CharString>
      <CharString index="114">
        hvcurveto
        9 hlineto
        return
      </CharString>
      <CharString index="115">
        15 hlineto
        212 171 184 204 return
      </CharString>
      <CharString index="116">
        226 0 29 257 30 405 29 return
      </CharString>
      <CharString index="117">
        139 -284 33 284 vlineto
        endchar
      </CharString>
      <CharString index="118">
        5 callgsubr
        hstem
        return
      </CharString>
      <CharString index="119">
        -75 rmoveto
        35 hlineto
        return
      </CharString>
      <CharString index="120">
        -287 21 -21 return
      </CharString>
      <CharString index="121">
        hstem
        60 32 return
      </CharString>
      <CharString index="122">
        -179 -21 return
      </CharString>
      <CharString index="123">
        15 hlineto
        130 101 -51 callsubr
        return
      </CharString>
      <CharString index="124">
        -13 28 155 27 234 28 hstem
        return
      </CharString>
      <CharString index="125">
        21 -21 273 28 420 29 hstem
        return
      </CharString>
      <CharString index="126">
        -19 callgsubr
        endchar
      </CharString>
      <CharString index="127">
        -33 -750 return
      </CharString>
      <CharString index="128">
        181 21 -21 748 -20 hstem
        return
      </CharString>
      <CharString index="129">
        263 vlineto
        82 63 59 76 vhcurveto
        return
      </CharString>
      <CharString index="130">
        28 421 25 hstemhm
        145 32 return
      </CharString>
</ttFont>
